<svg xmlns="http://www.w3.org/2000/svg" viewBox="0 0 394.85 102.07"><defs><style>.cls-1{fill:#ff0092;}</style></defs><title>logo-popeat</title><g id="Calque_2" data-name="Calque 2"><g id="Calque_1-2" data-name="Calque 1"><path class="cls-1" d="M143.51,61a4.09,4.09,0,0,0-1.16-.55l-.17-.06-.08-.09-.21,0A1.6,1.6,0,0,0,140,61.67a1.76,1.76,0,0,0,.31,1.24,1.38,1.38,0,0,0,1.07.58l.08.1v0a1.77,1.77,0,0,0,.31,1.25,1.53,1.53,0,0,0,1.07.61h.29a1.69,1.69,0,0,0,1.69-1.5A3.43,3.43,0,0,0,143.51,61Z"/><path class="cls-1" d="M128.33,60.51a2.59,2.59,0,0,1-.82.49,1.84,1.84,0,0,0-1,.79,1.61,1.61,0,0,0,1.21,2.48h.19a1.33,1.33,0,0,0,.5-.1,4.84,4.84,0,0,0,2.43-1.48,1.75,1.75,0,0,0-.11-2.35A1.69,1.69,0,0,0,128.33,60.51Z"/><path class="cls-1" d="M100,58.42a2.13,2.13,0,0,0-2.14-.71l-.07,0a4.84,4.84,0,0,0-2.17,1.73,1.63,1.63,0,0,0-.3,1.32,1.5,1.5,0,0,0,.69,1,1.47,1.47,0,0,0,.84.29H97a1.75,1.75,0,0,0,1.36-.66l.08-.11c.08-.19.39-.35.67-.49a1.83,1.83,0,0,0,.92-.94,1.59,1.59,0,0,0,0-1.33Z"/><path class="cls-1" d="M119.85,45.45h.23a2,2,0,0,0,1.27-.45,2,2,0,0,0,.76-1.37,2,2,0,0,0-.44-1.5,2,2,0,0,0-3.63,1A2.06,2.06,0,0,0,119.85,45.45Z"/><path class="cls-1" d="M107.08,44h.23a2,2,0,0,0,2-1.82A2,2,0,1,0,107.08,44Z"/><path class="cls-1" d="M132.73,46.88H133a2,2,0,1,0-.23,0Z"/><path class="cls-1" d="M126.64,38.19h.23a2,2,0,1,0-.23,0Z"/><path class="cls-1" d="M113.87,36.77h.23a2.06,2.06,0,0,0,1.28-.45,2,2,0,0,0,.75-1.37,2,2,0,0,0-1.8-2.26h0a2,2,0,0,0-.46,4.07Z"/><path class="cls-1" d="M146,55.73a6.09,6.09,0,0,0,1.47-3.29l.29-2.6c.89-8-1.27-14.43-6.42-19s-13.18-7.38-24.52-8.64C105.64,21,97,22,91,25.31s-9.53,9.07-10.42,17.06L80.27,45a5.8,5.8,0,0,0,.67,3.53,8.77,8.77,0,0,0-.7,16.8,7.63,7.63,0,0,0-1.94,5l-.07,6a6.41,6.41,0,0,0,5.66,6.34l51.89,5.76a5.58,5.58,0,0,0,.7,0,6.43,6.43,0,0,0,6.22-5l1.24-5.83a7.17,7.17,0,0,0-.74-5.31A8.79,8.79,0,0,0,146,55.73ZM116.32,25.55c10.45,1.16,17.77,3.65,22.37,7.62s6.36,9.24,5.58,16.28l-.29,2.6a2.87,2.87,0,0,1-1.09,2,2.92,2.92,0,0,1-2.16.63L87.52,48.75h0l-1.4-.16a2,2,0,0,1-.43-.08h0A2.73,2.73,0,0,1,83.84,47h0l-.12-.51,5.55.61a1.19,1.19,0,0,0,.26-2.36L83.6,44a.86.86,0,0,1,0-.16l0-.43c0-.56.13-1.21.22-1.89l5.83.64A1.19,1.19,0,0,0,90,39.83l-5.68-.63c.13-.57.29-1.15.48-1.73.07-.21.16-.39.23-.59l5.23.59a1.19,1.19,0,0,0,.27-2.37L86,34.6a15.87,15.87,0,0,1,1.39-2.24l3.36.38A1.19,1.19,0,0,0,91,30.37l-1.6-.17a15.9,15.9,0,0,1,2.93-2.07l1.06.12a1.13,1.13,0,0,0,1.31-1.06.61.61,0,0,0,0-.19l0,0,.27-.13.13,0,.34-.1a36.21,36.21,0,0,1,8.28-1.51h0A68.74,68.74,0,0,1,116.32,25.55Zm8.4,30.73a84.26,84.26,0,0,0-11.42,2.89l-.49.06-.17.06-.11-.07a113.42,113.42,0,0,0-12.61-5.7ZM89.26,53.63a18.69,18.69,0,0,1,.47,3,7.61,7.61,0,0,1,0,1.24,1.89,1.89,0,0,1-2.1,1.68,2,2,0,0,1-1-.4,1.89,1.89,0,0,1-.7-1.7,16.25,16.25,0,0,1,1.4-4c.1-.26.18-.51.26-.74l1.12.36.46.14A1.24,1.24,0,0,0,89.26,53.63Zm51.26,23.2-1.25,5.87A3,3,0,0,1,136,85L90,79.89h0l-4.82-.53h0l-1-.1-.37-.07h0A2.83,2.83,0,0,1,82,77.86a1.19,1.19,0,0,1-.09-.15l4,.44a1.19,1.19,0,0,0,.26-2.36l-4.58-.51v-.07l0-1.22h0v-.52l3.85.43a1.19,1.19,0,1,0,.26-2.36l-4.13-.46c0-.3,0-.58,0-.79a3.53,3.53,0,0,1,.1-.91h0l0-.08,2.92.32a1.12,1.12,0,0,0,1.29-.94.45.45,0,0,1,0-.11,1.11,1.11,0,0,0-1.05-1.31h0l-1.8-.2.19-.2a6.25,6.25,0,0,1,.66-.37l.17-.07a4,4,0,0,1,2-.31l50.71,5.63a4.18,4.18,0,0,1,2.92,1.74A3.63,3.63,0,0,1,140.52,76.83Zm6.81-12.92v0a5.42,5.42,0,0,1-1.91,3.79,5.14,5.14,0,0,1-3.88,1.15L82.32,62.29a5.24,5.24,0,0,1-2.38-.88,5.43,5.43,0,0,1-1.52-1.32l.9.1a1.11,1.11,0,0,0,1.31-1,1.13,1.13,0,0,0-1-1.32l-2.13-.23A5.37,5.37,0,0,1,77.52,56l2.12.23a1.19,1.19,0,0,0,.26-2.36l-1.42-.16.09-.15a5.06,5.06,0,0,1,.9-.89,3.8,3.8,0,0,1,.38-.29,5.37,5.37,0,0,1,2.72-.87,4.4,4.4,0,0,1,.82,0h.11l1,.12.78.24a.56.56,0,0,1-.1.41,17.81,17.81,0,0,0-1.62,4.84,4.28,4.28,0,0,0,8.51,1,14.68,14.68,0,0,0-.18-3.31c0-.27-.09-.55-.15-.83l1.13.37c.13.05,12.58,4.66,18,7.65a5.21,5.21,0,0,0,1.31.41,5.12,5.12,0,0,0,1.44-.13l1.15-.37c4.41-1.23,14.74-4.12,25.69-4.14l2.12.24a5.34,5.34,0,0,1,4.71,5.88Z"/><path class="cls-1" d="M94.65,38.53a2.05,2.05,0,0,0-2.26,1.81h0A2.06,2.06,0,0,0,94.2,42.6h.23a2,2,0,0,0,.22-4.08Z"/><path class="cls-1" d="M101.44,31.27a2,2,0,0,0-.45,4.07h.23a2,2,0,0,0,.22-4.08Z"/><path class="cls-1" d="M25.17,18.16H65.58a1,1,0,0,1,.63.58L69.45,22q1.42,1.42,2.16,11.88t.74,29.9L41.65,69q-.67,2.7-1.4,5.61c-.47,1.95-1,3.9-1.45,5.86s-1,3.9-1.45,5.82-.93,3.73-1.35,5.45L3.63,94.59.19,91.12l-.19,0ZM4.78,87.46l25.13-2.2,5.6-22.52,30.12-5.21q0-36-.4-36.09H27.52ZM42,35.67l2.46-.07-1.8,13.75-3.8.82H38.7Z"/><path class="cls-1" d="M172.5,18.16h40.4a1,1,0,0,1,.64.58L216.77,22q1.42,1.42,2.17,11.88t.74,29.9L189,69c-.45,1.8-.92,3.67-1.39,5.61s-1,3.9-1.45,5.86-1,3.9-1.46,5.82-.92,3.73-1.35,5.45L151,94.59l-3.45-3.47-.19,0Zm-20.39,69.3,25.12-2.2,5.6-22.52L213,57.53q0-36-.4-36.09H174.84Zm37.24-51.79,2.46-.07L190,49.35l-3.79.82H186Z"/><path class="cls-1" d="M272.2,16.89V17l3.44,3.45v21l-10.28,1.92.65.66-4.64,18.47,3.07-.51,2.81-.48v.15l3.45,3.44V89.24l-55.88,4-3.44-3.47-.17,0,18-72.89Zm-40.43,3.28-16.29,66L264,82.73V65.41l-23.74,3.91H240l1.25-6.94,13.19-3,3.91-15.56H244.78l.82-4.13,23.32-4.34V20.17Z"/><path class="cls-1" d="M325.12,15.35v.14l3.45,3.44V94.85l-29,4.75L297,97.1l-25.71-3.54-3.44-3.45-.17,0,20.46-72.47Zm-34.41,5.41L271.92,87.35l20,2.76,3.72-16.43h6.47l-2.32,18.56,22.08-3.63V18.84Zm15.92,17.48L304.19,58.1l-5.34,1.5,4.87-21.36Z"/><path class="cls-1" d="M329.74,14.9h61.71l-.07.14,3.47,3.45L382.19,46.17l-13.05.21-7.74,48-33.91,4.52L324,95.48l-.16,0L336,47.06l-4.56.14-3.81.11-3.44-3.44H324Zm-1.69,25.57,13.13-.4L328.24,91.59,355.1,88l7.76-48.14v-.19l13.73-.21,9.73-21.28H332.43Z"/><path class="cls-1" d="M83.92,19.88a1.15,1.15,0,0,0,1.67,0l.59-.59.6.59a1.25,1.25,0,0,0,.83.36,1.27,1.27,0,0,0,.83-.36,1.14,1.14,0,0,0,0-1.66l-.59-.6.59-.59a1.15,1.15,0,0,0,0-1.67,1.14,1.14,0,0,0-1.66,0l-.6.6-.59-.6a1.15,1.15,0,0,0-1.67,0,1.17,1.17,0,0,0,0,1.67l.6.59-.6.6A1.15,1.15,0,0,0,83.92,19.88Z"/><path class="cls-1" d="M68.58,87.91a1.15,1.15,0,0,0-1.67,0l-.35.36-.24-.36a1.18,1.18,0,0,0-1.67,1.66l.36.36-.48.36a1.15,1.15,0,0,0,0,1.66,1.3,1.3,0,0,0,.84.36A1.27,1.27,0,0,0,66.2,92l.36-.35.35.35a1.15,1.15,0,0,0,1.67,0,1.15,1.15,0,0,0,0-1.66l-.36-.36.36-.36A1.15,1.15,0,0,0,68.58,87.91Z"/><path class="cls-1" d="M144.58,13.1a1.25,1.25,0,0,0,.83.36,1.27,1.27,0,0,0,.83-.36l.36-.36.36.36a1.25,1.25,0,0,0,.83.36,1.27,1.27,0,0,0,.83-.36,1.14,1.14,0,0,0,0-1.66l-.36-.36.36-.36A1.17,1.17,0,1,0,147,9.06l-.48.35-.36-.35a1.17,1.17,0,0,0-1.66,1.66l.35.36-.35.36A1.26,1.26,0,0,0,144.58,13.1Z"/><path class="cls-1" d="M128.16,91.72a3.92,3.92,0,1,0,3.93,3.92A4,4,0,0,0,128.16,91.72Zm0,5.47a1.55,1.55,0,1,1,1.55-1.55A1.58,1.58,0,0,1,128.16,97.19Z"/><circle class="cls-1" cx="70.47" cy="17.62" r="1.43"/><circle class="cls-1" cx="142.27" cy="100.65" r="1.43"/><circle class="cls-1" cx="155.23" cy="45.19" r="1.43"/><circle class="cls-1" cx="79.39" cy="27.63" r="1.43"/><circle class="cls-1" cx="148.23" cy="26.14" r="1.43"/><circle class="cls-1" cx="110.89" cy="95.61" r="1.43"/><circle class="cls-1" cx="64.1" cy="70.76" r="1.43"/><circle class="cls-1" cx="73.45" cy="79.65" r="1.43"/><circle class="cls-1" cx="128.16" cy="16.07" r="1.43"/><circle class="cls-1" cx="109.37" cy="12.51" r="1.43"/><circle class="cls-1" cx="98.55" cy="3.23" r="1.43"/><circle class="cls-1" cx="160.16" cy="23.33" r="1.43"/><path class="cls-1" d="M120.91,6.44h.24a1.17,1.17,0,0,0,1.19-1l.71-4a1.31,1.31,0,0,0-1-1.43,1.31,1.31,0,0,0-1.43,1L120,5A1.23,1.23,0,0,0,120.91,6.44Z"/><path class="cls-1" d="M95.7,96.47a1.18,1.18,0,0,0-1.55.6l-1,1.78a1.18,1.18,0,0,0,.59,1.55.72.72,0,0,0,.48.12,1.15,1.15,0,0,0,1.07-.72l1-1.78A1.18,1.18,0,0,0,95.7,96.47Z"/></g></g></svg>