<svg xmlns="http://www.w3.org/2000/svg" viewBox="6234.67 3779.033 103.599 99.54">
  <defs>
    <style>
      .cls-1 {
        fill: #ff0092;
      }
    </style>
  </defs>
  <path id="Tracé_135" data-name="Tracé 135" class="cls-1" d="M3.908,1.311A153.882,153.882,0,0,1,20.7,4.281,162.38,162.38,0,0,1,37.091,8.593a133.32,133.32,0,0,1,31.184,14.45c3.4,2.342,6.854,4.883,10.109,7.625.8.6,0,1.628-.8,1a123.689,123.689,0,0,0-14.564-8.91A132.2,132.2,0,0,0,47.428,15.79,148.95,148.95,0,0,0,14.674,7.68c-1.8-.2-3.427-.428-5.283-.6.171.171.4.485.6.714a5.631,5.631,0,0,1,1,1.114,1.461,1.461,0,0,0,.428.4,2.984,2.984,0,0,0,.6.485c.828.8,1.628,1.542,2.427,2.227a46.89,46.89,0,0,0,5.026,3.855c.228,0,.228.114.228.114.2.114.4.314.571.428A8.9,8.9,0,0,1,21.7,17.3c1.028.514,2.028,1.028,2.856,1.542a120,120,0,0,0,12.137,4.912c.4.2.8.314,1.228.514.4,0,.4.086.4.086l.2.114a8.18,8.18,0,0,0,.8.2c1.028.4,2.227.714,3.056,1.114,2.2.714,4.426,1.342,6.454,2.028,1.428.514,2.856,1.628,2.656,3.227a2.458,2.458,0,0,1-3.027,2.028A95.278,95.278,0,0,0,17.3,34.38c.4.114.4.228.571.228a6.2,6.2,0,0,0,1.4.514s0,.086.2.086c.228.114.628.228.628.286a63.192,63.192,0,0,0,12.137,2.342,3.99,3.99,0,0,1,.8.086h.6a6.92,6.92,0,0,0,1.428.114c1.171.086,2,.2,3.2.2,2.028.114,4.084.2,6.282.114a89.111,89.111,0,0,0,9.081-.314,7.135,7.135,0,0,1,1.256-.2c3.056-.171,4.483,4.74.828,5.14a4.6,4.6,0,0,1-1.228.2c-.4.114-1,.2-1.628.314-1.171.314-2.4.714-3.6,1.114a40.583,40.583,0,0,0-12.565,8.2,17,17,0,0,0-2,2.113,71.548,71.548,0,0,0,12.108-.4,40.543,40.543,0,0,0,15.792-5.94,2.831,2.831,0,0,1,3.227.286c.828.685,1.656,2,.828,3.027-2.028,3.912-4.455,8-5.683,12.336a.963.963,0,0,0-.4.914v.314c0-.114.4-.228.8-.314,0-.114.4-.228.6-.314.228-.086.228-.2.628-.2h0v-.086a92.933,92.933,0,0,0,8.881-4.969c1.628-1.028,3.255-2.028,5.083-3.027,2.627-1.628,6.282,2.627,3.427,4.341-3.427,2.028-6.882,4.169-10.338,6.083a33.9,33.9,0,0,1-7.682,3.512c-2.627.714-5.283.314-6.654-2.285-1.228-2.342,0-5.369,1-7.625.4-1.228,1-2.313,1.428-3.541a39.378,39.378,0,0,1-9.281,2.542,81.457,81.457,0,0,1-19.019,0c-1.228-.228-3.056-2.342-2.227-3.769A35.948,35.948,0,0,1,39.118,43.8c0-.114.228-.114.428-.2-2.656-.114-5.055-.314-7.682-.628a61.353,61.353,0,0,1-12.394-2.427,27.064,27.064,0,0,1-9.909-5.254c-.2,0-.4-.114-.4-.2a3.3,3.3,0,0,1-1.228-2.542,2.918,2.918,0,0,1,1.628-2,103.786,103.786,0,0,1,21.475-3.37,62.117,62.117,0,0,1-8.11-3.627C14.445,19.359,6.764,13.391,1.709,5.338.281,3.253,1.509,1,3.908,1.311Z" transform="translate(6268.027 3777.378) rotate(29)"/>
</svg>
