<svg xmlns="http://www.w3.org/2000/svg" viewBox="6448.825 3866.928 99.371 91.077">
  <defs>
    <style>
      .cls-1 {
        fill: #ff0092;
      }
    </style>
  </defs>
  <path id="Tracé_134" data-name="Tracé 134" class="cls-1" d="M83.049,1.313A163.529,163.529,0,0,0,65.205,4.469,172.559,172.559,0,0,0,47.786,9.052,141.678,141.678,0,0,0,14.648,24.407C11.036,26.9,7.364,29.6,3.9,32.51c-.85.637,0,1.73.85,1.062A131.443,131.443,0,0,1,20.231,24.1,140.489,140.489,0,0,1,36.8,16.7,158.288,158.288,0,0,1,71.609,8.081c1.912-.212,3.642-.455,5.614-.637-.182.182-.425.516-.637.759a5.984,5.984,0,0,0-1.062,1.184,1.553,1.553,0,0,1-.455.425,3.172,3.172,0,0,1-.637.516c-.88.85-1.73,1.639-2.579,2.367a49.83,49.83,0,0,1-5.341,4.1c-.243,0-.243.121-.243.121-.212.121-.425.334-.607.455a9.458,9.458,0,0,0-1.517.941c-1.092.546-2.155,1.092-3.035,1.639a127.52,127.52,0,0,1-12.9,5.22c-.425.212-.85.334-1.3.546-.425,0-.425.091-.425.091l-.212.121a8.693,8.693,0,0,1-.85.212c-1.092.425-2.367.759-3.247,1.184-2.337.759-4.7,1.426-6.858,2.155-1.517.546-3.035,1.73-2.822,3.429a2.612,2.612,0,0,0,3.217,2.155,101.251,101.251,0,0,1,33.108,1.4c-.425.121-.425.243-.607.243a6.584,6.584,0,0,1-1.487.546s0,.091-.212.091c-.243.121-.668.243-.668.3a67.153,67.153,0,0,1-12.9,2.488,4.24,4.24,0,0,0-.85.091h-.637a7.354,7.354,0,0,1-1.517.121c-1.244.091-2.124.212-3.4.212-2.155.121-4.34.212-6.676.121a94.7,94.7,0,0,1-9.65-.334,7.583,7.583,0,0,0-1.335-.212c-3.247-.182-4.764,5.038-.88,5.462a4.885,4.885,0,0,0,1.3.212c.425.121,1.062.212,1.73.334,1.244.334,2.549.759,3.824,1.184A37.943,37.943,0,0,1,42.172,51.2a38.3,38.3,0,0,1,6.039,4.825,18.064,18.064,0,0,1,2.124,2.246,76.032,76.032,0,0,1-12.867-.425,43.084,43.084,0,0,1-16.782-6.312,3.008,3.008,0,0,0-3.429.3c-.88.728-1.76,2.124-.88,3.217,2.155,4.158,4.734,8.5,6.039,13.11a1.023,1.023,0,0,1,.425.971v.334c0-.121-.425-.243-.85-.334,0-.121-.425-.243-.637-.334-.243-.091-.243-.212-.668-.212h0V68.5a98.758,98.758,0,0,1-9.438-5.28c-1.73-1.092-3.46-2.155-5.4-3.217C3.055,58.274-.829,62.8,2.205,64.617c3.642,2.155,7.314,4.431,10.986,6.464,2.549,1.4,5.341,3.035,8.163,3.733,2.792.759,5.614.334,7.071-2.428,1.3-2.488,0-5.705-1.062-8.1-.425-1.3-1.062-2.458-1.517-3.763a41.846,41.846,0,0,0,9.863,2.7c6.464.941,13.353.637,20.211,0,1.3-.243,3.247-2.488,2.367-4.006A38.2,38.2,0,0,0,45.632,46.469c0-.121-.243-.121-.455-.212,2.822-.121,5.371-.334,8.163-.668A65.2,65.2,0,0,0,66.51,43.01a28.76,28.76,0,0,0,10.53-5.584c.212,0,.425-.121.425-.212a3.51,3.51,0,0,0,1.3-2.7,3.1,3.1,0,0,0-1.73-2.124A110.292,110.292,0,0,0,54.22,28.807a66.011,66.011,0,0,0,8.618-3.854c9.013-4.461,17.176-10.8,22.548-19.361C86.9,3.377,85.6.979,83.049,1.313Z" transform="translate(6464.657 3865.432) rotate(13)"/>
</svg>
