<svg xmlns="http://www.w3.org/2000/svg" viewBox="6862.371 4126.886 160.785 157.131">
  <defs>
    <style>
      .cls-1, .cls-2 {
        fill: #ff0092;
      }

      .cls-2 {
        stroke: #ff0092;
        stroke-miterlimit: 10;
      }
    </style>
  </defs>
  <g id="Groupe_48" data-name="Groupe 48" transform="translate(6525 3759)">
    <path id="Tracé_124" data-name="Tracé 124" class="cls-1" d="M95.886,74.1a1.857,1.857,0,0,0,1.2.52,1.794,1.794,0,0,0,1.2-.52l.877-.877.877.877a1.857,1.857,0,0,0,1.2.52,1.794,1.794,0,0,0,1.2-.52,1.668,1.668,0,0,0,0-2.4l-.877-.877.877-.877a1.7,1.7,0,0,0-2.4-2.4l-.877.877-.877-.877a1.7,1.7,0,0,0-2.4,2.4l.877.877-.877.877A1.616,1.616,0,0,0,95.886,74.1Z" transform="translate(312.192 295.392) rotate(13)"/>
    <path id="Tracé_125" data-name="Tracé 125" class="cls-1" d="M15.186,391.837a1.668,1.668,0,0,0-2.4,0l-.52.52-.357-.52a1.7,1.7,0,0,0-2.4,2.4l.52.52-.682.52a1.668,1.668,0,0,0,0,2.4,1.857,1.857,0,0,0,1.2.52,1.794,1.794,0,0,0,1.2-.52l.52-.52.52.52a1.857,1.857,0,0,0,1.2.52,1.794,1.794,0,0,0,1.2-.52,1.668,1.668,0,0,0,0-2.4l-.52-.52.52-.52A1.668,1.668,0,0,0,15.186,391.837Z" transform="translate(418.349 95.225) rotate(13)"/>
    <path id="Tracé_126" data-name="Tracé 126" class="cls-1" d="M366.6,45.286a1.857,1.857,0,0,0,1.2.52,1.735,1.735,0,0,0,1.2-.52l.52-.52.52.52a1.857,1.857,0,0,0,1.2.52,1.735,1.735,0,0,0,1.2-.52,1.668,1.668,0,0,0,0-2.4l-.52-.52.52-.52a1.7,1.7,0,0,0-2.4-2.4l-.682.52-.52-.52a1.7,1.7,0,0,0-2.4,2.4l.52.52-.52.52A1.838,1.838,0,0,0,366.6,45.286Z" transform="translate(129.956 272.787) rotate(13)"/>
    <path id="Tracé_127" data-name="Tracé 127" class="cls-1" d="M282.887,409.9a5.687,5.687,0,1,0,5.687,5.687A5.735,5.735,0,0,0,282.887,409.9Zm0,7.929a2.242,2.242,0,1,1,2.242-2.242A2.29,2.29,0,0,1,282.887,417.829Z" transform="translate(244.647 42.254) rotate(13)"/>
    <circle id="Ellipse_52" data-name="Ellipse 52" class="cls-1" cx="2.08" cy="2.08" r="2.08" transform="translate(369.063 379.103) rotate(13)"/>
    <circle id="Ellipse_53" data-name="Ellipse 53" class="cls-1" cx="2.08" cy="2.08" r="2.08" transform="translate(443.548 520.028) rotate(13)"/>
    <circle id="Ellipse_54" data-name="Ellipse 54" class="cls-1" cx="2.08" cy="2.08" r="2.08" transform="translate(478.895 449.554) rotate(-70.679)"/>
    <circle id="Ellipse_55" data-name="Ellipse 55" class="cls-1" cx="2.08" cy="2.08" r="2.08" transform="translate(378.429 396.172) rotate(13)"/>
    <circle id="Ellipse_56" data-name="Ellipse 56" class="cls-1" cx="2.08" cy="2.08" r="2.08" transform="translate(475.23 420.307) rotate(-70.679)"/>
    <circle id="Ellipse_57" data-name="Ellipse 57" class="cls-1" cx="2.08" cy="2.08" r="2.08" transform="translate(399.437 505.03) rotate(-42.751)"/>
    <circle id="Ellipse_58" data-name="Ellipse 58" class="cls-1" cx="2.08" cy="2.08" r="2.08" transform="translate(342.717 452.193) rotate(13)"/>
    <circle id="Ellipse_59" data-name="Ellipse 59" class="cls-1" cx="2.08" cy="2.08" r="2.08" transform="translate(351.655 470.193) rotate(-42.751)"/>
    <circle id="Ellipse_60" data-name="Ellipse 60" class="cls-1" cx="2.08" cy="2.08" r="2.08" transform="translate(357.555 508.112) rotate(13)"/>
    <circle id="Ellipse_61" data-name="Ellipse 61" class="cls-1" cx="2.08" cy="2.08" r="2.08" transform="translate(451.232 395.738) rotate(13)"/>
    <circle id="Ellipse_62" data-name="Ellipse 62" class="cls-1" cx="2.08" cy="2.08" r="2.08" transform="translate(425.798 384.564) rotate(13)"/>
    <circle id="Ellipse_63" data-name="Ellipse 63" class="cls-1" cx="2.08" cy="2.08" r="2.08" transform="translate(413.507 367.886) rotate(13)"/>
    <circle id="Ellipse_64" data-name="Ellipse 64" class="cls-1" cx="2.08" cy="2.08" r="2.08" transform="translate(494.103 416.474) rotate(13)"/>
    <path id="Tracé_128" data-name="Tracé 128" class="cls-1" d="M259.315,9.309h.357a1.661,1.661,0,0,0,1.722-1.4l1.04-5.882a1.916,1.916,0,0,0-1.4-2.08,1.916,1.916,0,0,0-2.08,1.4L257.95,7.229A1.8,1.8,0,0,0,259.315,9.309Z" transform="translate(195.069 314.839) rotate(13)"/>
    <path id="Tracé_129" data-name="Tracé 129" class="cls-1" d="M141.754,430.815a1.694,1.694,0,0,0-2.242.877l-1.4,2.6a1.694,1.694,0,0,0,.877,2.242,1.066,1.066,0,0,0,.682.162,1.7,1.7,0,0,0,1.56-1.04l1.4-2.6A1.763,1.763,0,0,0,141.754,430.815Z" transform="translate(339.375 49.729) rotate(13)"/>
    <path id="Tracé_130" data-name="Tracé 130" class="cls-2" d="M355.431,274.674a13.1,13.1,0,0,0-1.982-.91,1.645,1.645,0,0,0-.52,3.25.757.757,0,0,1,.487.227c.162.033.325.195.26.715a1.573,1.573,0,0,0,1.365,1.885l.162.033a1.748,1.748,0,0,0,1.917-1.527A4.3,4.3,0,0,0,355.431,274.674Z" transform="translate(175.071 120.518) rotate(13)"/>
    <path id="Tracé_131" data-name="Tracé 131" class="cls-2" d="M292.638,272.88a4.755,4.755,0,0,1-1.495.877,1.778,1.778,0,0,0-1.267,2.112,1.655,1.655,0,0,0,1.43,1.2,1.252,1.252,0,0,0,.715-.1,6.163,6.163,0,0,0,3.152-1.917,1.826,1.826,0,0,0-.065-2.437A1.807,1.807,0,0,0,292.638,272.88Z" transform="translate(215.446 130.881) rotate(13)"/>
    <path id="Tracé_132" data-name="Tracé 132" class="cls-2" d="M154.732,262.05a6.177,6.177,0,0,0-2.86,2.275,1.5,1.5,0,0,0,.455,2.307,1.249,1.249,0,0,0,.845.26,1.779,1.779,0,0,0,1.625-.682,2.8,2.8,0,0,1,1.332-1.072,1.751,1.751,0,0,0,.942-2.34A2.466,2.466,0,0,0,154.732,262.05Z" transform="translate(304.849 158.633) rotate(13)"/>
    <circle id="Ellipse_65" data-name="Ellipse 65" class="cls-2" cx="2.242" cy="2.242" r="2.242" transform="translate(431.062 432.403) rotate(13)"/>
    <circle id="Ellipse_66" data-name="Ellipse 66" class="cls-2" cx="2.242" cy="2.242" r="2.242" transform="translate(413.482 426.209) rotate(13)"/>
    <circle id="Ellipse_67" data-name="Ellipse 67" class="cls-2" cx="2.242" cy="2.242" r="2.242" transform="translate(448.832 438.639) rotate(13)"/>
    <circle id="Ellipse_68" data-name="Ellipse 68" class="cls-2" cx="2.242" cy="2.242" r="2.242" transform="translate(395.712 419.973) rotate(13)"/>
    <circle id="Ellipse_69" data-name="Ellipse 69" class="cls-2" cx="2.242" cy="2.242" r="2.242" transform="translate(443.063 424.334) rotate(13)"/>
    <circle id="Ellipse_70" data-name="Ellipse 70" class="cls-2" cx="2.242" cy="2.242" r="2.242" transform="translate(425.444 418.166) rotate(13)"/>
    <circle id="Ellipse_71" data-name="Ellipse 71" class="cls-2" cx="2.242" cy="2.242" r="2.242" transform="translate(407.706 411.936) rotate(13)"/>
    <path id="Tracé_133" data-name="Tracé 133" class="cls-2" d="M167.454,162.736a12.078,12.078,0,0,0-7.474-12.478,8.148,8.148,0,0,0,2.665-5.1l.422-3.769c2.567-23.007-12.023-35.745-44.291-39.319s-49.3,5.817-51.83,28.661l-.422,3.769a7.546,7.546,0,0,0,1.462,5.557,12,12,0,0,0-.877,23.527h0a10.507,10.507,0,0,0-3.445,7.6l-.1,8.676a8.546,8.546,0,0,0,7.571,8.481l75.357,8.384a8.577,8.577,0,0,0,9.261-6.629l1.82-8.481a9.554,9.554,0,0,0-1.69-8.189h0A12.027,12.027,0,0,0,167.454,162.736Zm-88.615-15.76a24.5,24.5,0,0,1,.715,6.174,2.763,2.763,0,0,1-5.492-.617,23.339,23.339,0,0,1,2.047-5.849,8.837,8.837,0,0,0,.552-1.852c.682.26,1.332.487,2.177.747A3.35,3.35,0,0,0,78.839,146.976Zm39.384-41.5c30.383,3.38,43.544,14.753,41.237,35.518l-.422,3.769a4.979,4.979,0,0,1-5.524,4.419l-68.825-7.636-1.04-.13-.162-.033-9.261-1.04a4.832,4.832,0,0,1-4.257-3.932h0l8.936,1.007a1.733,1.733,0,1,0,.39-3.445l-8.936-1.007a1.218,1.218,0,0,0-.357-.033l.195-1.885c.065-.52.13-1.04.195-1.722l.162.032,8.936,1.007a1.733,1.733,0,0,0,.39-3.445l-8.936-1.007a22.207,22.207,0,0,1,1.072-3.347l8.254.91a1.733,1.733,0,0,0,.39-3.445l-7.214-.812c.65-1.137,1.3-2.275,1.917-3.25l5.654.617a1.733,1.733,0,0,0,.39-3.445l-3.25-.357a23.867,23.867,0,0,1,4-3.022l2.762.292a1.629,1.629,0,0,0,1.917-1.527,2.549,2.549,0,0,0-.227-1.072C94.5,104.764,104.836,103.985,118.224,105.479Zm17.385,45.2a130.413,130.413,0,0,0-21.772,5.069l-.715.1a.739.739,0,0,1-.845-.1A190.541,190.541,0,0,0,88.75,145.481Zm18.36,30.188-1.82,8.481a5.013,5.013,0,0,1-5.459,3.9L71.333,184.9a4.813,4.813,0,0,1-4-3.055l6.694.747a1.733,1.733,0,0,0,.39-3.445l-7.376-.812-.065-2.6,6.337.715A1.733,1.733,0,1,0,73.7,173l-6.694-.747-.065-1.04c.065-.52.13-1.04.162-1.56l4.972.552a1.733,1.733,0,0,0,.39-3.445l-3.607-.39c.032-.162.195-.162.195-.325a6.912,6.912,0,0,1,5.232-1.69l73.635,8.189a6.77,6.77,0,0,1,4.744,2.795A5.922,5.922,0,0,1,153.969,180.869Zm.715-11.016-6.174-.682-73.635-8.189L68.7,160.3a8.742,8.742,0,0,1-6.337-4l2.047.227a1.733,1.733,0,0,0,.39-3.445l-3.607-.39-.162-.032a5.094,5.094,0,0,1,.032-1.722c.032-.162.032-.357.065-.52l.162.032,3.607.39a1.733,1.733,0,1,0,.39-3.445l-2.925-.325a8.55,8.55,0,0,1,8.059-3.8l1.722.195a1.122,1.122,0,0,1,.942.812.739.739,0,0,1-.1.845,25.85,25.85,0,0,0-2.34,7.052A6.212,6.212,0,0,0,83,153.54a26.066,26.066,0,0,0-.617-6.857c7.7,2.6,19.562,7.052,28.239,11.828a4.545,4.545,0,0,0,3.445.357l.715-.26c5.394-1.495,21.544-6.3,38.572-6.3l3.087.357a8.471,8.471,0,0,1,7.474,9.359A8.355,8.355,0,0,1,154.684,169.853Z" transform="translate(342.053 278.52) rotate(13)"/>
  </g>
</svg>
