<svg id="Groupe_31" data-name="Groupe 31" xmlns="http://www.w3.org/2000/svg" viewBox="1158.863 872.826 327.07 346.773">
  <defs>
    <style>
      .cls-1 {
        fill: #ff0092;
      }
    </style>
  </defs>
  <path id="Tracé_26" data-name="Tracé 26" class="cls-1" d="M1.191,15.712a4.124,4.124,0,0,0,2.67,1.155,3.984,3.984,0,0,0,2.67-1.155l1.948-1.948,1.948,1.948a4.124,4.124,0,0,0,2.67,1.155,3.984,3.984,0,0,0,2.67-1.155,3.7,3.7,0,0,0,0-5.34L13.818,8.424l1.948-1.948a3.7,3.7,0,0,0,0-5.34,3.7,3.7,0,0,0-5.34,0L8.478,3.085,6.53,1.136a3.7,3.7,0,0,0-5.34,0,3.7,3.7,0,0,0,0,5.34L3.139,8.424,1.191,10.372A3.589,3.589,0,0,0,1.191,15.712Z" transform="translate(1201.575 963.997) rotate(-20)"/>
  <path id="Tracé_27" data-name="Tracé 27" class="cls-1" d="M14.125,1.136a3.7,3.7,0,0,0-5.34,0L7.631,2.291,6.837,1.136a3.7,3.7,0,0,0-5.34,0,3.7,3.7,0,0,0,0,5.34L2.652,7.631,1.136,8.785a3.7,3.7,0,0,0,0,5.34,4.124,4.124,0,0,0,2.67,1.155,3.984,3.984,0,0,0,2.67-1.155L7.631,12.97l1.155,1.154a4.124,4.124,0,0,0,2.67,1.155,3.984,3.984,0,0,0,2.67-1.155,3.7,3.7,0,0,0,0-5.34L12.97,7.631l1.155-1.155A3.7,3.7,0,0,0,14.125,1.136Z" transform="translate(1222.941 1205.242) rotate(-20)"/>
  <path id="Tracé_28" data-name="Tracé 28" class="cls-1" d="M1.5,14.125a4.124,4.124,0,0,0,2.67,1.155,3.853,3.853,0,0,0,2.67-1.155L7.991,12.97l1.155,1.154a4.124,4.124,0,0,0,2.67,1.155,3.852,3.852,0,0,0,2.67-1.155,3.7,3.7,0,0,0,0-5.34L13.331,7.631l1.154-1.155a3.7,3.7,0,0,0,0-5.34,3.7,3.7,0,0,0-5.34,0L7.631,2.291,6.476,1.136a3.7,3.7,0,0,0-5.34,0,3.7,3.7,0,0,0,0,5.34L2.291,7.631,1.136,8.785A4.082,4.082,0,0,0,1.5,14.125Z" transform="translate(1378.104 878.169) rotate(-20)"/>
  <path id="Tracé_29" data-name="Tracé 29" class="cls-1" d="M12.627,0A12.735,12.735,0,0,0,0,12.627,12.735,12.735,0,0,0,12.627,25.255,12.735,12.735,0,0,0,25.255,12.627,12.735,12.735,0,0,0,12.627,0Zm0,17.606a5.085,5.085,0,0,1-4.979-4.979,5.085,5.085,0,0,1,4.979-4.979,5.085,5.085,0,0,1,4.979,4.979A5.085,5.085,0,0,1,12.627,17.606Z" transform="translate(1409.496 1151.604) rotate(-20)"/>
  <circle id="Ellipse_18" data-name="Ellipse 18" class="cls-1" cx="4.618" cy="4.618" r="4.618" transform="translate(1158.863 983.671) rotate(-20)"/>
  <circle id="Ellipse_19" data-name="Ellipse 19" class="cls-1" cx="4.618" cy="4.618" r="4.618" transform="translate(1468.007 1156.032) rotate(-20)"/>
  <circle id="Ellipse_20" data-name="Ellipse 20" class="cls-1" cx="4.618" cy="4.618" r="4.618" transform="translate(1448.602 982.042) rotate(-103.679)"/>
  <circle id="Ellipse_21" data-name="Ellipse 21" class="cls-1" cx="4.618" cy="4.618" r="4.618" transform="translate(1196.948 1004.133) rotate(-20)"/>
  <circle id="Ellipse_22" data-name="Ellipse 22" class="cls-1" cx="4.618" cy="4.618" r="4.618" transform="translate(1406.406 932.008) rotate(-103.679)"/>
  <circle id="Ellipse_23" data-name="Ellipse 23" class="cls-1" cx="4.618" cy="4.618" r="4.618" transform="translate(1367.721 1181.448) rotate(-75.751)"/>
  <circle id="Ellipse_24" data-name="Ellipse 24" class="cls-1" cx="4.618" cy="4.618" r="4.618" transform="translate(1198.194 1151.648) rotate(-20)"/>
  <circle id="Ellipse_25" data-name="Ellipse 25" class="cls-1" cx="4.618" cy="4.618" r="4.618" transform="translate(1236.606 1174.359) rotate(-75.751)"/>
  <circle id="Ellipse_27" data-name="Ellipse 27" class="cls-1" cx="4.618" cy="4.618" r="4.618" transform="translate(1332.004 915.278) rotate(-20)"/>
  <circle id="Ellipse_28" data-name="Ellipse 28" class="cls-1" cx="4.618" cy="4.618" r="4.618" transform="translate(1271.124 925.227) rotate(-20)"/>
  <circle id="Ellipse_29" data-name="Ellipse 29" class="cls-1" cx="4.618" cy="4.618" r="4.618" transform="translate(1228.064 909.032) rotate(-20)"/>
  <circle id="Ellipse_30" data-name="Ellipse 30" class="cls-1" cx="4.618" cy="4.618" r="4.618" transform="translate(1436.917 902.048) rotate(-20)"/>
  <path id="Tracé_30" data-name="Tracé 30" class="cls-1" d="M3.084,20.834h.794a3.688,3.688,0,0,0,3.824-3.1l2.309-13.06A4.254,4.254,0,0,0,6.908.053a4.254,4.254,0,0,0-4.618,3.1L.053,16.216A4,4,0,0,0,3.084,20.834Z" transform="translate(1295.25 878.379) rotate(-20)"/>
  <path id="Tracé_31" data-name="Tracé 31" class="cls-1" d="M8.386.3A3.761,3.761,0,0,0,3.408,2.253L.3,8.026A3.761,3.761,0,0,0,2.253,13a2.367,2.367,0,0,0,1.515.361,3.783,3.783,0,0,0,3.464-2.309l3.1-5.772A3.914,3.914,0,0,0,8.386.3Z" transform="translate(1320.224 1200.051) rotate(-20)"/>
  <path id="Tracé_32" data-name="Tracé 32" class="cls-1" d="M8.625,2.059C6.821.688,4.584.471,4.223.038A3.492,3.492,0,0,0,.038,3.069,3.492,3.492,0,0,0,3.069,7.254a1.681,1.681,0,0,1,1.082.505c.361.072.722.433.577,1.587a3.492,3.492,0,0,0,3.031,4.185l.361.072a3.882,3.882,0,0,0,4.257-3.391A9.548,9.548,0,0,0,8.625,2.059Z" transform="translate(1426.306 1040.938) rotate(-20)"/>
  <path id="Tracé_33" data-name="Tracé 33" class="cls-1" d="M6.266,1.411A10.562,10.562,0,0,1,2.947,3.36,3.949,3.949,0,0,0,.133,8.05a3.674,3.674,0,0,0,3.175,2.67A2.781,2.781,0,0,0,4.9,10.5a13.686,13.686,0,0,0,7-4.257A4.054,4.054,0,0,0,11.75.834,4.013,4.013,0,0,0,6.266,1.411Z" transform="translate(1384.078 1055.153) rotate(-20)"/>
  <path id="Tracé_34" data-name="Tracé 34" class="cls-1" d="M7.128.16A13.716,13.716,0,0,0,.778,5.211a3.338,3.338,0,0,0,1.01,5.123,2.773,2.773,0,0,0,1.876.577A3.95,3.95,0,0,0,7.272,9.4C7.777,8.314,9,7.664,10.231,7.015a3.888,3.888,0,0,0,2.093-5.2A5.475,5.475,0,0,0,7.128.16Z" transform="translate(1287.775 1082.322) rotate(-20)"/>
  <circle id="Ellipse_31" data-name="Ellipse 31" class="cls-1" cx="4.979" cy="4.979" r="4.979" transform="translate(1338.781 1007.95) rotate(-20)"/>
  <circle id="Ellipse_32" data-name="Ellipse 32" class="cls-1" cx="4.979" cy="4.979" r="4.979" transform="translate(1298.553 1017.677) rotate(-20)"/>
  <circle id="Ellipse_33" data-name="Ellipse 33" class="cls-1" cx="4.979" cy="4.979" r="4.979" transform="translate(1379.416 998.074) rotate(-20)"/>
  <circle id="Ellipse_34" data-name="Ellipse 34" class="cls-1" cx="4.979" cy="4.979" r="4.979" transform="translate(1257.918 1027.553) rotate(-20)"/>
  <circle id="Ellipse_35" data-name="Ellipse 35" class="cls-1" cx="4.979" cy="4.979" r="4.979" transform="translate(1351.373 978.411) rotate(-20)"/>
  <circle id="Ellipse_36" data-name="Ellipse 36" class="cls-1" cx="4.979" cy="4.979" r="4.979" transform="translate(1311.102 988.231) rotate(-20)"/>
  <circle id="Ellipse_37" data-name="Ellipse 37" class="cls-1" cx="4.979" cy="4.979" r="4.979" transform="translate(1270.535 998.082) rotate(-20)"/>
  <path id="Tracé_35" data-name="Tracé 35" class="cls-1" d="M243.333,136.354a26.819,26.819,0,0,0-16.6-27.708,18.093,18.093,0,0,0,5.917-11.329l.938-8.37c5.7-51.087-26.7-79.372-98.349-87.309S25.782,14.554,20.153,65.28l-.938,8.37a16.755,16.755,0,0,0,3.247,12.339,26.644,26.644,0,0,0-1.948,52.241h0a23.33,23.33,0,0,0-7.649,16.885l-.216,19.266a18.977,18.977,0,0,0,16.812,18.833l167.33,18.616a19.046,19.046,0,0,0,20.565-14.72l4.041-18.833a21.214,21.214,0,0,0-3.752-18.183h0C230.345,160.021,241.89,149.7,243.333,136.354Zm-196.77-35c1.3,5.556,1.8,11.4,1.587,13.71A6.136,6.136,0,1,1,35.956,113.7,51.826,51.826,0,0,1,40.5,100.709,19.621,19.621,0,0,0,41.728,96.6c1.515.577,2.958,1.082,4.834,1.66A7.438,7.438,0,0,0,46.563,101.358ZM134.016,9.215c67.466,7.5,96.689,32.759,91.566,78.867l-.938,8.37a11.056,11.056,0,0,1-12.267,9.813L59.551,89.308l-2.309-.289-.361-.072L36.316,86.638a10.73,10.73,0,0,1-9.452-8.731h0l19.843,2.237a3.849,3.849,0,0,0,.866-7.649L27.73,70.259a2.705,2.705,0,0,0-.794-.072L27.369,66c.144-1.154.289-2.309.433-3.824l.361.072,19.843,2.237a3.849,3.849,0,0,0,.866-7.649L29.029,54.6a49.31,49.31,0,0,1,2.381-7.432l18.328,2.02A3.618,3.618,0,0,0,53.995,45.8,3.618,3.618,0,0,0,50.6,41.541l-16.019-1.8c1.443-2.525,2.886-5.051,4.257-7.216L51.4,33.892A3.618,3.618,0,0,0,55.654,30.5a3.618,3.618,0,0,0-3.391-4.257l-7.216-.794a52.994,52.994,0,0,1,8.875-6.711l6.133.649A3.618,3.618,0,0,0,64.313,16a5.66,5.66,0,0,0-.505-2.381C81.342,7.627,104.288,5.9,134.016,9.215Zm38.6,100.369a289.586,289.586,0,0,0-48.345,11.256l-1.587.216a1.641,1.641,0,0,1-1.876-.216c-16.019-8.731-35.934-16.74-52.241-22.8Zm40.768,67.033-4.041,18.833a11.131,11.131,0,0,1-12.122,8.659L29.894,185.565a10.687,10.687,0,0,1-8.875-6.783l14.864,1.66a3.849,3.849,0,1,0,.866-7.649l-16.379-1.8-.144-5.773L34.3,166.8a3.849,3.849,0,1,0,.866-7.649L20.3,157.5l-.144-2.309c.144-1.155.289-2.309.361-3.464l11.04,1.227a3.849,3.849,0,0,0,.866-7.649l-8.009-.866c.072-.361.433-.361.433-.722a15.347,15.347,0,0,1,11.617-3.752l163.506,18.183a15.032,15.032,0,0,1,10.535,6.205C213.6,168.175,214.615,172.5,213.388,176.617Zm1.587-24.461-13.71-1.515L37.759,132.458l-13.71-1.515a19.412,19.412,0,0,1-14.07-8.875l4.546.505a3.849,3.849,0,0,0,.866-7.649l-8.009-.866-.361-.072a11.311,11.311,0,0,1,.072-3.824c.072-.361.072-.794.144-1.155l.361.072,8.009.866a3.849,3.849,0,1,0,.866-7.649l-6.494-.722a18.984,18.984,0,0,1,17.895-8.442l3.824.433a2.492,2.492,0,0,1,2.093,1.8,1.641,1.641,0,0,1-.216,1.876c-2.525,5.123-4.762,11.834-5.2,15.658A13.793,13.793,0,0,0,55.8,115.934c.361-3.031-.144-9.308-1.371-15.225,17.1,5.773,43.438,15.658,62.7,26.265a10.093,10.093,0,0,0,7.649.794l1.587-.577c11.978-3.319,47.84-14,85.65-14l6.855.794a18.809,18.809,0,0,1,16.6,20.781A18.553,18.553,0,0,1,214.975,152.156Z" transform="translate(1184.628 996.507) rotate(-20)"/>
</svg>
