<svg xmlns="http://www.w3.org/2000/svg" viewBox="7208 3922 36.072 42.847">
  <defs>
    <style>
      .cls-1 {
        fill: #ff0092;
      }
    </style>
  </defs>
  <path id="call" class="cls-1" d="M30.749,53.567,51.3,56.511a2.857,2.857,0,1,0,.824-5.653l-10.954-1.59v-.177h5.3a3.355,3.355,0,0,0,3.357-3.357,3.394,3.394,0,0,0-3.357-3.357h.766A3.355,3.355,0,0,0,50.6,39.021a3.394,3.394,0,0,0-3.357-3.357h-1.3A3.355,3.355,0,0,0,49.3,32.307a3.394,3.394,0,0,0-3.357-3.357h-11.6l8.421-9.658a3.369,3.369,0,0,0-.353-4.77h0a3.369,3.369,0,0,0-4.77.353L22.5,32.131a12.183,12.183,0,0,0-4,9.069A12.379,12.379,0,0,0,30.749,53.567Z" transform="translate(7189.5 3908.304)"/>
</svg>
