<svg xmlns="http://www.w3.org/2000/svg" viewBox="268 1457 19.103 22.691">
  <defs>
    <style>
      .cls-1 {
        fill: #fff;
      }
    </style>
  </defs>
  <path id="noun_321969_cc" class="cls-1" d="M24.987,34.811,35.871,36.37a1.513,1.513,0,0,0,.437-2.994l-5.8-.842V32.44h2.807a1.777,1.777,0,0,0,1.778-1.778,1.8,1.8,0,0,0-1.778-1.778h.405A1.777,1.777,0,0,0,35.5,27.107a1.8,1.8,0,0,0-1.778-1.778h-.686a1.777,1.777,0,0,0,1.778-1.778,1.8,1.8,0,0,0-1.778-1.778H26.889l4.46-5.115a1.784,1.784,0,0,0-.187-2.526h0a1.784,1.784,0,0,0-2.526.187l-8.015,9.138a6.452,6.452,0,0,0-2.121,4.8A6.556,6.556,0,0,0,24.987,34.811Z" transform="translate(249.5 1443.304)"/>
</svg>
