<svg xmlns="http://www.w3.org/2000/svg" viewBox="5094.798 3862 53.072 47.308">
  <defs>
    <style>
      .cls-1 {
        fill: #00a4ff;
      }
    </style>
  </defs>
  <g id="Groupe_39" data-name="Groupe 39" transform="translate(3979 3440)">
    <path id="Tracé_121" data-name="Tracé 121" class="cls-1" d="M207.911,40.168l-32.5-6.879a2.563,2.563,0,0,0-3.029,1.971l-.618,3.968,37.5,7.936.618-3.968A2.563,2.563,0,0,0,207.911,40.168Z" transform="translate(958.933 388.766)"/>
    <path id="Tracé_122" data-name="Tracé 122" class="cls-1" d="M37.377,170.292a2.588,2.588,0,0,0-3.175-1.8l-6.17,1.713L13.484,167.13l-1.6,7.559-10,2.774a2.587,2.587,0,0,0-1.8,3.175l5.633,20.3a2.587,2.587,0,0,0,3.175,1.8l32.312-8.967a2.588,2.588,0,0,0,1.8-3.175l-.967-3.485,3.624.766A2.562,2.562,0,0,0,48.7,185.9l2.293-10.834L37.935,172.3Zm3.732,10.317.8-3.777a1.055,1.055,0,0,1,1.246-.811l3.777.8a1.055,1.055,0,0,1,.811,1.246l-.8,3.777a1.055,1.055,0,0,1-1.246.811l-3.777-.8A1.055,1.055,0,0,1,41.108,180.609Zm-38.657-1.12,8.942-2.481,21.1-5.855,2.27-.631a.473.473,0,0,1,.123-.016.488.488,0,0,1,.464.348l.267.96.835,3.009-33.23,9.221-1.1-3.969A.484.484,0,0,1,2.451,179.489Zm38.532,11.663a.485.485,0,0,1-.332.587L8.34,200.706a.47.47,0,0,1-.123.017.488.488,0,0,1-.464-.349l-3.286-11.84,33.23-9.222,2.027,7.3Z" transform="translate(1115.798 266.481)"/>
    <path id="Tracé_123" data-name="Tracé 123" class="cls-1" d="M94.9,445.372a1.055,1.055,0,0,0-1.295-.732l-3.774,1.048a1.054,1.054,0,0,0-.732,1.295l1.047,3.773a1.054,1.054,0,0,0,1.295.732l3.774-1.047a1.055,1.055,0,0,0,.732-1.294Z" transform="translate(1034.464 13.072)"/>
  </g>
</svg>
