<svg xmlns="http://www.w3.org/2000/svg" viewBox="7462.395 4058.092 138.38 113.375">
  <defs>
    <style>
      .cls-1 {
        fill: #ff0092;
      }
    </style>
  </defs>
  <path id="Tracé_136" data-name="Tracé 136" class="cls-1" d="M137.073,94.432,74.886,44.2l-3.451-2.866a3.514,3.514,0,0,0-4.492,0L49,56.236v-6.3a3.517,3.517,0,0,0-3.516-3.516H32.077a3.517,3.517,0,0,0-3.516,3.516V73.147L1.293,95.394a3.517,3.517,0,0,0,4.447,5.45l10.637-8.678v58.215a3.516,3.516,0,0,0,3.516,3.516H57.469a3.517,3.517,0,0,0,3.517-3.516V123.1H77.393v27.282A3.517,3.517,0,0,0,80.91,153.9h37.576A3.516,3.516,0,0,0,122,150.381V91.3l10.651,8.6a3.517,3.517,0,0,0,4.42-5.471ZM35.594,53.452h6.372v8.381L35.594,66.99Zm79.376,33.176v60.236H84.427V119.582a3.516,3.516,0,0,0-3.516-3.516H57.469a3.516,3.516,0,0,0-3.516,3.516v27.282H23.41V86.628L37.081,75.275S69.09,49.047,69.294,48.7Z" transform="translate(7462.395 4017.569)"/>
</svg>
