<svg xmlns="http://www.w3.org/2000/svg" viewBox="1557 1490 35.028 35.028">
  <defs>
    <style>
      .cls-1 {
        fill: #fff;
      }
    </style>
  </defs>
  <g id="Groupe_33" data-name="Groupe 33" transform="translate(0 2)">
    <path id="Tracé_21" data-name="Tracé 21" class="cls-1" d="M23.362,26.868a3.5,3.5,0,1,0-3.5-3.507A3.512,3.512,0,0,0,23.362,26.868Z" transform="translate(1551.151 1483.152)"/>
    <path id="Tracé_22" data-name="Tracé 22" class="cls-1" d="M34.268,17.336V13.96h-.44l-2.938.009.011,3.377Z" transform="translate(1547.902 1484.888)"/>
    <path id="Tracé_24" data-name="Tracé 24" class="cls-1" d="M26.926,23.973a5.448,5.448,0,1,1-10.5-2.044H13.457v8.155a1.909,1.909,0,0,0,1.909,1.908H27.587A1.91,1.91,0,0,0,29.5,30.084V21.929H26.521A5.374,5.374,0,0,1,26.926,23.973Z" transform="translate(1553.036 1482.541)"/>
    <path id="Tracé_23" data-name="Tracé 23" class="cls-1" d="M17.514,0A17.514,17.514,0,1,0,35.028,17.514,17.534,17.534,0,0,0,17.514,0Zm9.961,15.47v8.155a3.854,3.854,0,0,1-3.85,3.85H11.4a3.853,3.853,0,0,1-3.85-3.85V11.4a3.853,3.853,0,0,1,3.85-3.85H23.624a3.854,3.854,0,0,1,3.85,3.85Z" transform="translate(1557 1488)"/>
  </g>
</svg>
