<svg xmlns="http://www.w3.org/2000/svg" viewBox="268 1497 24 16.931">
  <defs>
    <style>
      .cls-1 {
        fill: #fff;
      }
    </style>
  </defs>
  <g id="Groupe_32" data-name="Groupe 32" transform="translate(0 2)">
    <path id="Tracé_15" data-name="Tracé 15" class="cls-1" d="M23.651,20A3.235,3.235,0,0,1,24,21.309V32.131a2.942,2.942,0,0,1-.436,1.484L17.8,27.767a.711.711,0,0,0-1.047.96L22.6,34.662a2.685,2.685,0,0,1-1.658.524H3.055a3.147,3.147,0,0,1-1.745-.524l5.847-5.935a.68.68,0,1,0-.96-.96L.349,33.615A4.111,4.111,0,0,1,0,32.131V21.309A3.188,3.188,0,0,1,.262,20l9.076,7.505a4.321,4.321,0,0,0,5.236,0Z" transform="translate(268 1476.745)"/>
    <path id="Tracé_16" data-name="Tracé 16" class="cls-1" d="M15.833,0H33.724a3.291,3.291,0,0,1,1.833.611L26.393,8.116a2.628,2.628,0,0,1-3.316,0L14,.611A3.291,3.291,0,0,1,15.833,0Z" transform="translate(255.222 1495)"/>
  </g>
</svg>
