<svg id="Groupe_30" data-name="Groupe 30" xmlns="http://www.w3.org/2000/svg" viewBox="1625 42 21.351 19.551">
  <defs>
    <style>
      .cls-1 {
        fill: #ff0092;
      }
    </style>
  </defs>
  <path id="Tracé_17" data-name="Tracé 17" class="cls-1" d="M5.969,7.449A2.22,2.22,0,0,0,3.79,5.6H2.16a.66.66,0,0,0,0,1.321H3.812a.857.857,0,0,1,.859.727L6.057,16.08a.375.375,0,0,0,.022.154l.242,1.5a2.626,2.626,0,0,0,2.6,2.2H19.752a.66.66,0,1,0,0-1.321H8.942a1.321,1.321,0,0,1-1.3-1.1l-.132-.793h12.7a.642.642,0,0,0,.638-.484L22.834,8.7a.739.739,0,0,0-.11-.572.69.69,0,0,0-.528-.264H6.035ZM21.337,9.211l-1.651,6.209H7.29L6.256,9.211Z" transform="translate(1623.5 36.4)"/>
  <path id="Tracé_18" data-name="Tracé 18" class="cls-1" d="M30.513,76.068a2.257,2.257,0,1,0-2.246,2.268A2.264,2.264,0,0,0,30.513,76.068Zm-3.192,0a.954.954,0,0,1,.947-.947.94.94,0,0,1,.947.947.947.947,0,1,1-1.893,0Z" transform="translate(1604.394 -16.785)"/>
  <path id="Tracé_19" data-name="Tracé 19" class="cls-1" d="M64.735,76.068a2.268,2.268,0,1,0-2.268,2.268A2.293,2.293,0,0,0,64.735,76.068Zm-3.192,0a.954.954,0,0,1,.947-.947.94.94,0,0,1,.947.947.947.947,0,1,1-1.893,0Z" transform="translate(1577.724 -16.785)"/>
</svg>
