<svg xmlns="http://www.w3.org/2000/svg" viewBox="1611 1490 35.028 35.028">
  <defs>
    <style>
      .cls-1 {
        fill: #fff;
      }
    </style>
  </defs>
  <path id="Tracé_25" data-name="Tracé 25" class="cls-1" d="M17.514,0A17.514,17.514,0,1,0,35.028,17.514,17.534,17.534,0,0,0,17.514,0Zm7.813,13.506c.008.174.012.349.012.523A11.467,11.467,0,0,1,7.69,23.687a8.14,8.14,0,0,0,5.968-1.669,4.035,4.035,0,0,1-3.766-2.8,4.047,4.047,0,0,0,1.82-.068A4.032,4.032,0,0,1,8.479,15.2c0-.017,0-.035,0-.051a4.015,4.015,0,0,0,1.825.5,4.037,4.037,0,0,1-1.247-5.382,11.446,11.446,0,0,0,8.308,4.213A4.034,4.034,0,0,1,24.235,10.8,8.046,8.046,0,0,0,26.8,9.825a4.049,4.049,0,0,1-1.775,2.231,8.014,8.014,0,0,0,2.315-.634A8.109,8.109,0,0,1,25.327,13.506Z" transform="translate(1611 1490)"/>
</svg>
