<svg xmlns="http://www.w3.org/2000/svg" viewBox="3051 1446 62.3 60.295">
  <defs>
    <style>
      .cls-1 {
        fill: #7d7d7d;
      }
    </style>
  </defs>
  <path id="Tracé_72" data-name="Tracé 72" class="cls-1" d="M61.946,24.1,46.447,8.6a1.217,1.217,0,0,0-1.855.159,10.614,10.614,0,0,1-4.137,3.332A12.037,12.037,0,0,0,34.1,18.444a9.224,9.224,0,0,1-2.028,2.99,12.1,12.1,0,0,1-3.356,2.393,11.691,11.691,0,0,0-3.792,2.563,14.522,14.522,0,0,0-2.928,4.159,9.583,9.583,0,0,1-5.017,5.018,14.468,14.468,0,0,0-4.158,2.927,11.651,11.651,0,0,0-2.562,3.793,12.089,12.089,0,0,1-2.393,3.356A9.17,9.17,0,0,1,4.873,47.67,14.352,14.352,0,0,0,.32,51.01a1.217,1.217,0,0,0,.038,1.681l5.163,5.163,5.131,5.131.031.033,5.163,5.162a1.217,1.217,0,0,0,1.76-.041,12.02,12.02,0,0,1,3.672-2.727,11.627,11.627,0,0,0,3.8-2.561A14.488,14.488,0,0,0,28,58.691,9.182,9.182,0,0,1,30.029,55.7a12.08,12.08,0,0,1,3.354-2.394,12.025,12.025,0,0,0,6.355-6.355,12.121,12.121,0,0,1,2.4-3.354,9.239,9.239,0,0,1,2.989-2.029,14.506,14.506,0,0,0,4.159-2.926,11.671,11.671,0,0,0,2.561-3.793,9.609,9.609,0,0,1,5.018-5.019,13.33,13.33,0,0,0,5.2-4.148A1.217,1.217,0,0,0,61.946,24.1Zm-59,27.74a10.785,10.785,0,0,1,2.844-1.912,11.618,11.618,0,0,0,3.8-2.561A14.481,14.481,0,0,0,12.511,43.2a9.2,9.2,0,0,1,2.029-2.989,12.076,12.076,0,0,1,3.354-2.394,12.017,12.017,0,0,0,6.355-6.355,12.122,12.122,0,0,1,2.4-3.354,9.233,9.233,0,0,1,2.989-2.029,14.5,14.5,0,0,0,4.159-2.926,11.669,11.669,0,0,0,2.561-3.793,9.606,9.606,0,0,1,5.019-5.019,13.1,13.1,0,0,0,4.3-3.077l3.44,3.44a11.192,11.192,0,0,1-3.5,2.545,12.04,12.04,0,0,0-6.354,6.355A9.22,9.22,0,0,1,37.235,26.6a12.106,12.106,0,0,1-3.356,2.393,11.685,11.685,0,0,0-3.794,2.563,14.544,14.544,0,0,0-2.926,4.157,9.586,9.586,0,0,1-5.019,5.018,14.5,14.5,0,0,0-4.157,2.928,11.658,11.658,0,0,0-2.564,3.794A12.065,12.065,0,0,1,13.026,50.8a9.19,9.19,0,0,1-2.99,2.027,13.916,13.916,0,0,0-3.648,2.446Zm53-24.259a12.041,12.041,0,0,0-6.355,6.355,9.221,9.221,0,0,1-2.028,2.99A12.106,12.106,0,0,1,44.2,39.316a11.686,11.686,0,0,0-3.792,2.562,14.515,14.515,0,0,0-2.929,4.159,9.589,9.589,0,0,1-5.017,5.018,14.475,14.475,0,0,0-4.158,2.928,11.633,11.633,0,0,0-2.562,3.793,12.091,12.091,0,0,1-2.393,3.355,9.174,9.174,0,0,1-2.99,2.027A13.387,13.387,0,0,0,16.71,65.6l-3.438-3.437a11.509,11.509,0,0,1,2.843-1.914,11.631,11.631,0,0,0,3.8-2.563,14.481,14.481,0,0,0,2.927-4.159,9.231,9.231,0,0,1,2.027-2.987,12.254,12.254,0,0,1,3.355-2.4,12.018,12.018,0,0,0,6.357-6.355,12.073,12.073,0,0,1,2.393-3.353c2.381-2.382,3.552-1.638,6.75-4.575a1.217,1.217,0,0,0-1.646-1.793c-2.971,2.728-4,1.82-6.825,4.646a14.464,14.464,0,0,0-2.927,4.158,9.6,9.6,0,0,1-5.02,5.018,13.491,13.491,0,0,0-6.719,6.72,12.091,12.091,0,0,1-2.393,3.355A9.21,9.21,0,0,1,15.2,58a13.866,13.866,0,0,0-3.649,2.445L8.11,57a11.478,11.478,0,0,1,2.842-1.915,11.64,11.64,0,0,0,3.794-2.561,14.466,14.466,0,0,0,2.927-4.159,9.2,9.2,0,0,1,2.03-2.989,12.1,12.1,0,0,1,3.353-2.395,12.017,12.017,0,0,0,6.356-6.355,12.149,12.149,0,0,1,2.393-3.354,9.232,9.232,0,0,1,2.99-2.03,14.5,14.5,0,0,0,4.16-2.926,11.674,11.674,0,0,0,2.561-3.8,9.608,9.608,0,0,1,5.017-5.017,13.427,13.427,0,0,0,4.3-3.078l3.442,3.442q-.129.139-.262.273a11.013,11.013,0,0,1-3.236,2.272,11.26,11.26,0,0,0-2.905,1.756,1.217,1.217,0,0,0,1.546,1.88A8.866,8.866,0,0,1,51.7,24.669a13.476,13.476,0,0,0,4.038-2.8c.09-.09.177-.181.264-.274l3.441,3.441A10.605,10.605,0,0,1,55.943,27.577Z" transform="translate(3050.998 1437.759)"/>
</svg>
