<svg xmlns="http://www.w3.org/2000/svg" viewBox="2360 1446 53.001 53.606">
  <defs>
    <style>
      .cls-1 {
        fill: #7d7d7d;
      }
    </style>
  </defs>
  <g id="Groupe_34" data-name="Groupe 34" transform="translate(1990)">
    <path id="Tracé_59" data-name="Tracé 59" class="cls-1" d="M27.709,30.9a6.762,6.762,0,0,0-.339-.74c-.082-.155-.177-.3-.271-.452-.067-.107-.134-.213-.206-.317-.108-.155-.221-.3-.341-.451-.069-.084-.143-.164-.215-.245a7.324,7.324,0,0,0-.726-.7c-.093-.079-.182-.163-.279-.237-.122-.093-.248-.174-.375-.259q-.224-.15-.456-.281c-.106-.059-.211-.117-.32-.17a5.925,5.925,0,0,0-.847-.345,5.351,5.351,0,0,0-.7-.162l-.144-.021a4.561,4.561,0,0,0-1.382.015l-.031.006a3.757,3.757,0,0,0-1.581.661c-.046.034-.078.081-.123.116a3.484,3.484,0,0,0-.347.33,3.3,3.3,0,0,0-.229.245,3.712,3.712,0,0,0-.385.606s0,.008,0,.012a4.339,4.339,0,0,0-.449,1.964,7,7,0,0,0,4.785,6.3,5.071,5.071,0,0,0,1.5.234A3.784,3.784,0,0,0,28.119,33a5.868,5.868,0,0,0-.411-2.1ZM20.481,29a1.538,1.538,0,0,1,.535-.361,1.864,1.864,0,0,1,.32-.113,2.137,2.137,0,0,1,.258-.036,2.378,2.378,0,0,1,.4-.019c.037,0,.075,0,.113.01a3.183,3.183,0,0,1,.637.125,4.115,4.115,0,0,1,.606.25c.041.02.081.041.121.062a5.007,5.007,0,0,1,1.116.822c.017.017.035.033.052.051a5.463,5.463,0,0,1,.838,1.082c.034.059.068.117.1.177.021.039.036.08.057.119a2.135,2.135,0,0,1-2.3.425,5.1,5.1,0,0,1-2.9-2.552C20.452,29.03,20.467,29.018,20.481,29ZM25.4,34.662a2.289,2.289,0,0,1-2.062.2,5.16,5.16,0,0,1-2.973-2.737,6.612,6.612,0,0,0,2.381,1.383,5.046,5.046,0,0,0,1.485.232,4.041,4.041,0,0,0,1.865-.445A1.877,1.877,0,0,1,25.4,34.662Z" transform="translate(369.696 1446)"/>
    <path id="Tracé_60" data-name="Tracé 60" class="cls-1" d="M41.456,33.835a3.284,3.284,0,0,0-2.955.4,3.084,3.084,0,0,0-1.2,2.533,5.209,5.209,0,0,0,3.561,4.695A3.858,3.858,0,0,0,42,41.636a3.029,3.029,0,0,0,1.816-.572,3.082,3.082,0,0,0,1.2-2.532A5.212,5.212,0,0,0,41.456,33.835Zm1.176,5.619a1.312,1.312,0,0,1-1.177.094A3.2,3.2,0,0,1,39.3,36.763a1.114,1.114,0,0,1,.384-.924,1.042,1.042,0,0,1,.625-.185,1.866,1.866,0,0,1,.552.091,3.2,3.2,0,0,1,2.152,2.786A1.111,1.111,0,0,1,42.632,39.454Z" transform="translate(369.696 1446)"/>
    <path id="Tracé_61" data-name="Tracé 61" class="cls-1" d="M13.456,31.835a3.284,3.284,0,0,0-2.955.4,3.084,3.084,0,0,0-1.2,2.533,5.209,5.209,0,0,0,3.561,4.695A3.858,3.858,0,0,0,14,39.636a3.029,3.029,0,0,0,1.816-.572,3.082,3.082,0,0,0,1.2-2.532A5.212,5.212,0,0,0,13.456,31.835Zm1.176,5.619a1.315,1.315,0,0,1-1.177.094A3.2,3.2,0,0,1,11.3,34.763a1.114,1.114,0,0,1,.384-.924,1.042,1.042,0,0,1,.625-.185,1.866,1.866,0,0,1,.552.091,3.2,3.2,0,0,1,2.152,2.786A1.111,1.111,0,0,1,14.632,37.454Z" transform="translate(369.696 1446)"/>
    <path id="Tracé_62" data-name="Tracé 62" class="cls-1" d="M34.456,40.771a2.486,2.486,0,0,0-2.232.309,2.351,2.351,0,0,0-.92,1.928A3.754,3.754,0,0,0,33.865,46.4a2.853,2.853,0,0,0,.844.132,2.318,2.318,0,0,0,1.388-.44,2.354,2.354,0,0,0,.921-1.929A3.757,3.757,0,0,0,34.456,40.771Zm.453,3.7a.553.553,0,0,1-.453.009A1.755,1.755,0,0,1,33.3,43.007a.423.423,0,0,1,.107-.317.331.331,0,0,1,.2-.051.891.891,0,0,1,.255.042,1.754,1.754,0,0,1,1.152,1.476A.428.428,0,0,1,34.909,44.475Z" transform="translate(369.696 1446)"/>
    <path id="Tracé_63" data-name="Tracé 63" class="cls-1" d="M33.151,34.505a2.855,2.855,0,0,0,.845.132,2.32,2.32,0,0,0,1.388-.44,2.351,2.351,0,0,0,.92-1.928,3.754,3.754,0,0,0-2.561-3.387,2.478,2.478,0,0,0-2.231.309,2.354,2.354,0,0,0-.921,1.929A3.75,3.75,0,0,0,33.151,34.505ZM32.7,30.8a.335.335,0,0,1,.2-.051.891.891,0,0,1,.255.042A1.755,1.755,0,0,1,34.3,32.269a.423.423,0,0,1-.107.317.556.556,0,0,1-.453.009,1.754,1.754,0,0,1-1.152-1.476A.418.418,0,0,1,32.7,30.8Z" transform="translate(369.696 1446)"/>
    <path id="Tracé_64" data-name="Tracé 64" class="cls-1" d="M11.3,21.767a4.024,4.024,0,0,0-2.744-3.628,2.622,2.622,0,0,0-2.365.325A2.486,2.486,0,0,0,5.222,20.5,4.02,4.02,0,0,0,7.967,24.13a3.03,3.03,0,0,0,.9.14,2.45,2.45,0,0,0,1.467-.464A2.483,2.483,0,0,0,11.3,21.767Zm-2.158.428a.687.687,0,0,1-.586.025A2.01,2.01,0,0,1,7.222,20.5a.547.547,0,0,1,.158-.43A.47.47,0,0,1,7.659,20a1.064,1.064,0,0,1,.308.051A2.01,2.01,0,0,1,9.3,21.767.537.537,0,0,1,9.145,22.195Z" transform="translate(369.696 1446)"/>
    <path id="Tracé_65" data-name="Tracé 65" class="cls-1" d="M49.332,35.37a1.51,1.51,0,0,1,.07-.192,1.665,1.665,0,0,1,.068-.184s.006-.007.008-.011a1.329,1.329,0,0,1,.2-.278,1.213,1.213,0,0,1,.358-.262c.027-.014.057-.024.085-.036a1.544,1.544,0,0,1,.424-.108c.021,0,.04-.008.062-.01a2.014,2.014,0,0,1,.4.012c.016,0,.031,0,.047,0h0c.011,0,.025.007.037.009a2.536,2.536,0,0,1,.383.094c.08.026.168.064.255.1.053.022.107.04.16.063a.917.917,0,0,0,.176.054c.021.005.041.015.062.019a1.007,1.007,0,0,0,.219.012.244.244,0,0,0,.027,0,.956.956,0,0,0,.23-.045l.013,0a.945.945,0,0,0,.14-.067.871.871,0,0,0,.087-.042,1.031,1.031,0,0,0,.459-.84V31.425A7.086,7.086,0,0,0,50.6,25.878L33.223,9.442A1,1,0,0,0,31.9,9.4a1.369,1.369,0,0,1-1.307.146A3.412,3.412,0,0,1,28.3,6.574a1.47,1.47,0,0,1,.145-.668,1,1,0,0,0-.2-1.177l-2.98-2.818a1.041,1.041,0,0,0-.081-.068C22.855.069,20-.486,17.869.448L3.079,7.583A4.7,4.7,0,0,0,.305,11.937V27.7a1,1,0,0,0,1.18.984,2.166,2.166,0,0,1,1.051.077A4.126,4.126,0,0,1,5.3,32.349a1.55,1.55,0,0,1-.555,1.3,1.8,1.8,0,0,1-1.623.146,3.661,3.661,0,0,1-1.2-.665A1,1,0,0,0,.3,33.906v2.163a4.655,4.655,0,0,0,3.5,4.527L47.492,53.464A4.678,4.678,0,0,0,53.3,48.926v-8.34a1,1,0,0,0-.842-.988c-.021,0-.042-.012-.063-.016a4.015,4.015,0,0,1-2.36-1.606h0a4.082,4.082,0,0,1-.626-1.271,3.438,3.438,0,0,1-.1-.378,2.907,2.907,0,0,1-.038-.516,2.311,2.311,0,0,1,.028-.243A1.784,1.784,0,0,1,49.332,35.37ZM3.91,9.4,18.7,2.264c1.431-.625,3.477-.178,5.224,1.137L26.4,5.737a3.646,3.646,0,0,0-.094.837A5.413,5.413,0,0,0,30,11.452a3.541,3.541,0,0,0,2.384-.048L48.3,26.461,31.1,21.337a5.5,5.5,0,0,0-3.541-3.786,3.4,3.4,0,0,0-3.057.407,2.92,2.92,0,0,0-.924,1.14l-20.149-6a1.3,1.3,0,0,1-1.068-1.268.889.889,0,0,0-.041-.13A2.694,2.694,0,0,1,3.91,9.4ZM29.258,22.429a1.211,1.211,0,0,1-.423,1.007,1.419,1.419,0,0,1-1.276.106,2.711,2.711,0,0,1-.455-.188,3.549,3.549,0,0,1-1.788-2.314,2.3,2.3,0,0,1-.047-.457c0-.022.017-.131.019-.152s-.007-.046-.006-.069a1.1,1.1,0,0,1,.409-.8,1.134,1.134,0,0,1,.685-.2,2.01,2.01,0,0,1,.593.1,3.449,3.449,0,0,1,2.266,2.727.226.226,0,0,1,0,.026ZM51.3,48.927a2.681,2.681,0,0,1-3.288,2.609L4.332,38.668a2.675,2.675,0,0,1-2.028-2.6v-.445c.077.028.154.055.231.078a3.782,3.782,0,0,0,3.4-.447A3.492,3.492,0,0,0,7.3,32.349a6.108,6.108,0,0,0-4.177-5.5,4.41,4.41,0,0,0-.823-.174V14.844a3.11,3.11,0,0,0,.651.2L23.3,21.1c.006.048.022.095.03.143.017.1.042.209.066.314.033.144.071.285.118.427.035.107.075.211.118.315.055.135.115.268.182.4.052.1.107.2.166.305.075.127.155.248.24.369.067.1.134.191.207.284.093.117.193.226.3.335.079.085.156.171.24.25.112.107.232.2.353.3.085.069.167.141.256.2a4.951,4.951,0,0,0,.434.267c.08.046.156.1.239.141a4.682,4.682,0,0,0,.724.3,4.03,4.03,0,0,0,.748.15c.067.008.132.011.2.016s.156.018.233.018a3.572,3.572,0,0,0,.4-.029c.025,0,.051,0,.076-.006a3.219,3.219,0,0,0,.659-.169c.049-.018.1-.038.145-.059a2.587,2.587,0,0,0,1.064-.774c.037-.042.071-.086.106-.13a2.924,2.924,0,0,0,.318-.5c.008-.016.018-.029.026-.045a3.175,3.175,0,0,0,.183-.489l18.061,5.376a2.691,2.691,0,0,1,2.117,2.618v.895a4.107,4.107,0,0,0-.9-.021,3.648,3.648,0,0,0-.712.138c-.079.023-.154.056-.23.085a3.254,3.254,0,0,0-.457.209c-.071.04-.14.081-.208.126a3.282,3.282,0,0,0-.429.344c-.034.032-.075.053-.108.087-.011.011-.017.026-.028.038s-.039.032-.057.052l0,0a3.4,3.4,0,0,0-.245.353,3.333,3.333,0,0,0-.2.287c-.01.018-.024.031-.033.048a3.6,3.6,0,0,0-.187.493c-.029.085-.072.163-.1.251a3.98,3.98,0,0,0-.106.692c-.006.067-.024.129-.027.2,0,.011,0,.021,0,.032a4.853,4.853,0,0,0,.056.8c.006.041,0,.079.007.12a5.376,5.376,0,0,0,.215.841c.007.02.008.04.015.059a3.839,3.839,0,0,0,.152.357c.051.12.1.24.159.357.021.045.038.091.062.136.057.107.125.207.19.308s.114.185.175.275h0a2.114,2.114,0,0,0,.123.188,6.052,6.052,0,0,0,.5.592c.021.025.065.078.089.1.069.071.144.131.215.2l.1.093a6.369,6.369,0,0,0,.517.42l.1.07a5.859,5.859,0,0,0,.575.355c.03.016.058.035.088.05a5.478,5.478,0,0,0,.7.307v7.569Z" transform="translate(369.696 1446)"/>
  </g>
</svg>
