<svg xmlns="http://www.w3.org/2000/svg" viewBox="3051 1656 63.3 63.297">
  <defs>
    <style>
      .cls-1 {
        fill: #7d7d7d;
      }
    </style>
  </defs>
  <g id="Groupe_37" data-name="Groupe 37" transform="translate(1990)">
    <path id="Tracé_81" data-name="Tracé 81" class="cls-1" d="M19.737,45.529c-3.537,0-6.628-.876-8.75-3h0c-7.874-7.876,1.4-29.147,9.044-36.792A19.623,19.623,0,0,1,47.781,33.489C42.2,39.074,29.333,45.529,19.737,45.529Zm-7.178-4.571c6.611,6.606,26.618-2.015,33.647-9.042A17.4,17.4,0,0,0,21.6,7.311c-7.024,7.031-15.646,27.041-9.042,33.647Z" transform="translate(1070.782 1656)"/>
    <path id="Tracé_82" data-name="Tracé 82" class="cls-1" d="M14.356,42.962A7.3,7.3,0,0,1,7.04,35.924a7.325,7.325,0,0,1-4.891-12.5,7.516,7.516,0,0,1,10.183-.189l6.3-6.3A1.112,1.112,0,1,1,20.2,18.508l-7.138,7.14a1.121,1.121,0,0,1-.863.325,1.109,1.109,0,0,1-.81-.438A4.889,4.889,0,0,0,10.959,25a5.232,5.232,0,0,0-7.233,0,5.093,5.093,0,0,0,4.331,8.655A1.115,1.115,0,0,1,9.315,34.91a5.063,5.063,0,0,0,1.426,4.335,5.113,5.113,0,1,0,7.231-7.231,3.865,3.865,0,0,0-.425-.347,1.266,1.266,0,0,1-.5-.854,1.159,1.159,0,0,1,.269-.905l7.138-7.14a1.112,1.112,0,0,1,1.573,1.573l-6.3,6.3a7.333,7.333,0,0,1-5.378,12.325Z" transform="translate(1061 1676.335)"/>
    <path id="Tracé_83" data-name="Tracé 83" class="cls-1" d="M25.95,16.211a1.1,1.1,0,0,1-.532-.138,1.109,1.109,0,0,1-.447-1.5c.071-.14,1.555-3.074-.629-7.029A1.113,1.113,0,0,1,26.29,6.469c2.8,5.076.727,9,.636,9.16A1.1,1.1,0,0,1,25.95,16.211Z" transform="translate(1090.633 1663.212)"/>
  </g>
</svg>
