<svg xmlns="http://www.w3.org/2000/svg" viewBox="3051 1553 63 56.7">
  <defs>
    <style>
      .cls-1 {
        fill: #7d7d7d;
      }
    </style>
  </defs>
  <g id="Groupe_36" data-name="Groupe 36" transform="translate(1990)">
    <path id="Tracé_73" data-name="Tracé 73" class="cls-1" d="M61.014,32.584A10.84,10.84,0,0,0,63,26.359c0-4.853-3.315-9.353-8.445-11.464a6.712,6.712,0,0,1-3.9-4.027c-1.4-4.442-4.586-6.967-9.74-7.721-4.287-.627-8.313.761-10.505,3.624C29.542,7.9,27.56,8.358,25.6,7.879a21.054,21.054,0,0,0-4.8-.592h-.174c-7.249,0-13.235,3.877-14.267,9.263a9.279,9.279,0,0,0,.657,5.562c.941,2.154.086,4.475-2.29,6.21C1.679,30.546,0,33.491,0,36.614c0,4.143,6.007,7.093,11.046,8.837,3.1,1.073,5.146,3.145,5.6,5.665l.026.146C17.637,56.22,22.855,59.7,29.2,59.7q.32,0,.644-.013a17.678,17.678,0,0,0,12.348-5.452,4.253,4.253,0,0,1,3.61-1.367,15.62,15.62,0,0,0,6.647-.505c5.141-1.5,9.062-5.616,9.759-10.232a10,10,0,0,0-1.3-6.7A2.6,2.6,0,0,1,61.014,32.584Zm-.882,9.234c-.576,3.824-3.9,7.251-8.272,8.53a13.5,13.5,0,0,1-5.756.442h0a6.364,6.364,0,0,0-5.468,2.041A15.548,15.548,0,0,1,29.77,57.59c-5.562.217-10.236-2.625-11.053-6.829-.594-3.306-3.139-5.966-6.983-7.3C5.7,41.379,2.1,38.817,2.1,36.614c0-2.434,1.372-4.778,3.864-6.6,3.179-2.323,4.319-5.674,2.975-8.748a7.2,7.2,0,0,1-.518-4.324c.841-4.4,5.96-7.559,12.2-7.559h.159a19.016,19.016,0,0,1,4.322.533c2.789.68,5.592-.071,6.973-1.87C33.8,5.794,37.069,4.715,40.61,5.228c4.336.634,6.891,2.628,8.04,6.275a8.829,8.829,0,0,0,5.106,5.337c4.34,1.785,7.144,5.523,7.144,9.521a8.751,8.751,0,0,1-1.608,5.022,4.675,4.675,0,0,0-.183,5.128A7.914,7.914,0,0,1,60.132,41.817Z" transform="translate(1061 1550)"/>
    <path id="Tracé_74" data-name="Tracé 74" class="cls-1" d="M38.175,17A14.175,14.175,0,1,0,52.35,31.175,14.19,14.19,0,0,0,38.175,17Zm0,26.25A12.075,12.075,0,1,1,50.25,31.175,12.089,12.089,0,0,1,38.175,43.25Z" transform="translate(1062.2 1550.7)"/>
    <path id="Tracé_75" data-name="Tracé 75" class="cls-1" d="M37.675,21a9.979,9.979,0,0,0-2.934.439,1.05,1.05,0,0,0,.617,2.008,7.86,7.86,0,0,1,2.316-.346,1.05,1.05,0,0,0,0-2.1Z" transform="translate(1062.7 1550.9)"/>
    <path id="Tracé_76" data-name="Tracé 76" class="cls-1" d="M31.548,23.247A9.956,9.956,0,0,0,28,30.875a1.05,1.05,0,1,0,2.1,0,7.861,7.861,0,0,1,2.8-6.022,1.05,1.05,0,0,0-1.353-1.607Z" transform="translate(1062.4 1551)"/>
    <path id="Tracé_77" data-name="Tracé 77" class="cls-1" d="M16.921,12.623a1.053,1.053,0,0,0-1.386-.533,12.275,12.275,0,0,0-5.362,4.586,1.049,1.049,0,1,0,1.757,1.149,10.208,10.208,0,0,1,4.458-3.816A1.052,1.052,0,0,0,16.921,12.623Z" transform="translate(1061.5 1550.45)"/>
    <path id="Tracé_78" data-name="Tracé 78" class="cls-1" d="M19.706,13.1a11.455,11.455,0,0,1,2.322-.005.985.985,0,0,0,.146.011,1.05,1.05,0,0,0,.145-2.089,13.173,13.173,0,0,0-2.816-.005,1.05,1.05,0,0,0,.2,2.089Z" transform="translate(1061.928 1550.397)"/>
    <path id="Tracé_79" data-name="Tracé 79" class="cls-1" d="M26.225,50.145l-.156.018a4.644,4.644,0,0,1-5.094-3.806,1.05,1.05,0,0,0-2.069.357,6.746,6.746,0,0,0,6.651,5.578,6.864,6.864,0,0,0,.758-.042l.171-.02a1.05,1.05,0,0,0-.261-2.084Z" transform="translate(1061.945 1552.125)"/>
    <path id="Tracé_80" data-name="Tracé 80" class="cls-1" d="M19.655,45.049A1.049,1.049,0,0,0,20,43.605a8.067,8.067,0,0,0-2.4-2.536,1.049,1.049,0,0,0-1.1,1.79A6.075,6.075,0,0,1,18.211,44.7a1.048,1.048,0,0,0,1.444.346Z" transform="translate(1061.8 1551.896)"/>
  </g>
</svg>
