<svg xmlns="http://www.w3.org/2000/svg" viewBox="3044 1766 76.781 48.017">
  <defs>
    <style>
      .cls-1 {
        fill: #7d7d7d;
      }
    </style>
  </defs>
  <g id="Groupe_38" data-name="Groupe 38" transform="translate(1990)">
    <path id="Tracé_84" data-name="Tracé 84" class="cls-1" d="M92.581,44.973v-.917C92.008,33.857,79.631,28.7,55.909,28.7,21.072,28.7,15.8,40.045,15.8,46.692V60.673c0,6.647,5.844,10.085,17.533,10.085,5.959,0,9.4,1.375,13.179,2.75a39.718,39.718,0,0,0,16.273,3.209c14.9,0,29.8-5.73,29.8-18.679V44.973ZM55.909,30.992c22.232,0,33.806,4.469,34.379,13.293A11.112,11.112,0,0,1,87.08,52.88c-4.469,4.813-13.866,7.793-24.409,7.793A38.447,38.447,0,0,1,47.2,57.579,33.855,33.855,0,0,0,33.219,54.6c-15.242,0-15.242-5.844-15.242-7.793C18.092,32.482,44.564,30.992,55.909,30.992Zm6.876,43.547a38.447,38.447,0,0,1-15.471-3.094,33.855,33.855,0,0,0-13.981-2.98c-15.242,0-15.242-5.844-15.242-7.793V52.651c2.75,2.75,7.793,4.126,15.242,4.126,5.959,0,9.4,1.375,13.179,2.75a39.718,39.718,0,0,0,16.273,3.209c11.345,0,21.086-3.209,26.014-8.48a12.51,12.51,0,0,0,1.49-1.948v5.73C90.289,69.382,76.422,74.539,62.785,74.539Z" transform="translate(1038.2 1737.3)"/>
    <path id="Tracé_85" data-name="Tracé 85" class="cls-1" d="M31.015,51.379h1.719a39.406,39.406,0,0,1,14.9,2.75c.458.229.917.344,1.49.573a32.268,32.268,0,0,0,13.064,2.75c9.282,0,18.336-2.98,22.461-7.334A8.523,8.523,0,0,0,87.054,43.7c-.115-1.834-.8-4.584-5.959-6.876C75.25,34.19,66.311,32.7,55.425,32.7c-25.785,0-33.348,5.615-35.067,10.314-1.031,2.75-.115,5.271.917,6.188C23.566,51.494,25.744,51.379,31.015,51.379ZM22.42,43.931c1.031-2.636,6.188-8.824,32.89-8.824,10.428,0,19.252,1.375,24.639,3.9,4.469,2.063,4.584,4.126,4.7,4.928a6.03,6.03,0,0,1-1.719,4.7c-3.667,3.9-12.147,6.647-20.742,6.647A29.431,29.431,0,0,1,50.038,52.64c-.458-.229-1.031-.344-1.49-.573a40.9,40.9,0,0,0-15.814-2.98H31.015c-5.042,0-6.647,0-8.251-1.49A3.4,3.4,0,0,1,22.42,43.931Z" transform="translate(1038.799 1737.884)"/>
    <path id="Tracé_86" data-name="Tracé 86" class="cls-1" d="M26.975,46.784a.859.859,0,0,0,.573.115,1.2,1.2,0,0,0,1.031-.573l2.865-5.615A1.1,1.1,0,0,0,29.5,39.679l-2.865,5.615A.948.948,0,0,0,26.975,46.784Z" transform="translate(1039.746 1738.812)"/>
    <path id="Tracé_87" data-name="Tracé 87" class="cls-1" d="M37.784,47.2a.689.689,0,0,0,.458.115,1.1,1.1,0,0,0,1.031-.688L42.826,38.6a1.129,1.129,0,1,0-2.063-.917l-3.553,8.022A1.137,1.137,0,0,0,37.784,47.2Z" transform="translate(1041.313 1738.515)"/>
    <path id="Tracé_88" data-name="Tracé 88" class="cls-1" d="M46.879,50.348a.689.689,0,0,0,.458.115,1.1,1.1,0,0,0,1.031-.688L53.984,38.2a1.129,1.129,0,1,0-2.063-.917l-5.5,11.574A1.057,1.057,0,0,0,46.879,50.348Z" transform="translate(1042.646 1738.457)"/>
    <path id="Tracé_89" data-name="Tracé 89" class="cls-1" d="M57.09,52.065a.689.689,0,0,0,.458.115,1.1,1.1,0,0,0,1.031-.688L64.31,39a1.129,1.129,0,1,0-2.063-.917l-5.73,12.491C56.174,51.034,56.517,51.721,57.09,52.065Z" transform="translate(1044.124 1738.573)"/>
    <path id="Tracé_90" data-name="Tracé 90" class="cls-1" d="M68.084,50.137a.689.689,0,0,0,.458.115,1.1,1.1,0,0,0,1.031-.688L73.012,42a1.129,1.129,0,1,0-2.063-.917l-3.438,7.563A1.137,1.137,0,0,0,68.084,50.137Z" transform="translate(1045.736 1739.011)"/>
  </g>
</svg>
