<svg xmlns="http://www.w3.org/2000/svg" viewBox="2360 1749 51.262 64.478">
  <defs>
    <style>
      .cls-1 {
        fill: #7d7d7d;
      }
    </style>
  </defs>
  <path id="onion" class="cls-1" d="M34.279,7.02V1.139A1.14,1.14,0,0,0,32.63.12L28.073,2.4a1.139,1.139,0,0,0-.629,1.02V7.16A25.778,25.778,0,0,0,5.815,33.342a25.848,25.848,0,0,0,18.55,23.733l-.526.088a1.139,1.139,0,0,0,.186,2.262,1.056,1.056,0,0,0,.188-.016l4.469-.745L26.41,60.936a1.139,1.139,0,1,0,1.611,1.611l2.84-2.84v3.631a1.139,1.139,0,1,0,2.278,0V59.708l2.84,2.84a1.139,1.139,0,1,0,1.612-1.611l-2.125-2.125,4.284.857a1.172,1.172,0,0,0,.224.023,1.139,1.139,0,0,0,.222-2.257l-1.654-.33A25.465,25.465,0,0,0,48.977,51.15a25.611,25.611,0,0,0-14.7-44.13ZM47.417,49.49a23.275,23.275,0,0,1-7.85,4.874,29.731,29.731,0,0,0,9.24-12.085,24.8,24.8,0,0,0-.915-21.161,1.14,1.14,0,0,0-2.021,1.054A22.326,22.326,0,0,1,46.7,41.419,27.17,27.17,0,0,1,36.073,54.026c5.164-7.761,8.147-23.111,4.63-34.983a1.139,1.139,0,1,0-2.185.647c3.774,12.738-.326,28.405-5.379,34.485V14.809a1.139,1.139,0,0,0-2.278,0V54.174c-5.052-6.079-9.153-21.747-5.379-34.485a1.139,1.139,0,0,0-2.185-.647c-3.518,11.871-.534,27.223,4.63,34.983A27.183,27.183,0,0,1,17.3,41.418a22.322,22.322,0,0,1,.826-19.247,1.14,1.14,0,0,0-2.021-1.054,24.805,24.805,0,0,0-.915,21.161A29.711,29.711,0,0,0,25.235,54.965,23.334,23.334,0,0,1,28.714,9.285a1.139,1.139,0,0,0,1.008-1.131V4.122L32,2.982V8.061A1.14,1.14,0,0,0,33.061,9.2,23.4,23.4,0,0,1,54.784,32.466,23.136,23.136,0,0,1,47.417,49.49Z" transform="translate(2354.199 1749.001)"/>
</svg>
