<svg xmlns="http://www.w3.org/2000/svg" viewBox="2360 1646 51.262 57.564">
  <defs>
    <style>
      .cls-1 {
        fill: #7d7d7d;
      }
    </style>
  </defs>
  <path id="salad" class="cls-1" d="M54.411,20.052a9.461,9.461,0,0,0-5.751-8.911,7.626,7.626,0,0,0-6.523-6.36,5.206,5.206,0,0,0-.188-.987,5.3,5.3,0,0,0-4.4-3.755,5.24,5.24,0,0,0-3.639.909A5.659,5.659,0,0,0,30.791,0a5.723,5.723,0,0,0-5.649,4.858c-.1.021-.2.05-.3.074-.094-.227-.191-.451-.3-.669C23.08,1.371,20.5-.31,18.109.076A4.941,4.941,0,0,0,14.477,3a5.346,5.346,0,0,0-4.06-.3A5.215,5.215,0,0,0,7.369,5.664a9.462,9.462,0,0,0-.029,6.765,6.4,6.4,0,0,0-2.4,3.26,10.189,10.189,0,0,0,.74,7.746c.14.282.293.562.46.837a6.425,6.425,0,0,0-2.582,3.352,8.89,8.89,0,0,0,.93,7.246,10.818,10.818,0,0,0,2.409,2.876A5.644,5.644,0,0,0,7.6,41.9a6.871,6.871,0,0,0,5.167,3.347c3.286,6.171,7.363,8.821,13.637,11.481l.07.03a5.406,5.406,0,0,0,2.883.8,6.339,6.339,0,0,0,1.724-.247c.009,0,.018,0,.027-.005l.011-.007a5.892,5.892,0,0,0,1.31-.549,4.031,4.031,0,0,0,2.006-4.939c-1.9-5.563-1.742-9.741.459-12.415,3.809-4.627,12.646-3.49,12.733-3.475l1.028.14.1-1.032a8.142,8.142,0,0,0-1.571-5.547c-.109-.127-.224-.248-.343-.363a9.048,9.048,0,0,0,1.573-.5A9.629,9.629,0,0,0,54.411,20.052ZM14.275,43.824l-.28-.55-.617,0h-.026a4.85,4.85,0,0,1-4.029-2.386,3.511,3.511,0,0,1-.343-3.12l.3-.729-.638-.465a8.788,8.788,0,0,1-2.429-2.706,6.907,6.907,0,0,1-.771-5.6A4.372,4.372,0,0,1,7.965,25.56l1.185-.489-.763-1.029a9.977,9.977,0,0,1-.919-1.5,8.306,8.306,0,0,1-.642-6.2,4.3,4.3,0,0,1,2.19-2.578l.856-.41-.365-.877-.044-.1A7.691,7.691,0,0,1,9.2,6.467,3.311,3.311,0,0,1,11.082,4.6a3.805,3.805,0,0,1,3.366.682l1.154.778.368-1.343a3.3,3.3,0,0,1,2.46-2.663c1.5-.255,3.275,1.037,4.324,3.113q.126.25.234.511c-.023.013-.042.03-.065.043a6.982,6.982,0,0,0-.595.4c-.115.084-.223.174-.332.265-.073.061-.144.124-.214.187a7.028,7.028,0,0,0-1.066,1.2l-.067.1a7.159,7.159,0,0,0-.476.817c-.035.069-.071.138-.1.208-.061.134-.117.269-.17.407s-.1.29-.15.438c-.038.123-.076.245-.107.371-.055.215-.1.434-.132.656-.012.081-.023.161-.033.243a6.95,6.95,0,0,0-.055.833c0,.183.008.366.022.552a8.051,8.051,0,0,0-5.9,11.253,6.18,6.18,0,0,0,1.782,9.76c-.005.535,0,1.056.021,1.567.006.167.019.329.027.494.017.34.037.679.065,1.01.016.189.038.374.057.56.031.3.065.6.106.887.026.19.056.379.086.566q.068.42.148.831.054.278.114.552c.06.273.126.544.195.812.044.173.088.346.135.517.079.281.165.558.254.833.048.151.094.3.145.454.113.331.237.658.365.984.035.089.066.181.1.27q.25.618.537,1.226c.054.115.114.229.17.343.141.29.284.579.437.867.082.154.17.308.256.463.137.247.275.494.421.739.1.167.2.334.3.5.143.233.289.466.44.7.111.172.225.344.34.516q.233.346.477.694c.12.172.241.344.366.516.171.236.348.474.526.712.127.169.251.338.382.508.194.253.4.509.6.765.124.157.244.312.371.47l.033.042A19.585,19.585,0,0,1,14.275,43.824ZM43.2,27.126l-.266-.044-.968.224-.106,2.207,1,.053a3.741,3.741,0,0,1,2.8,1.217,5.344,5.344,0,0,1,1.1,3.053c-2.751-.179-9.745-.152-13.406,4.288-2.676,3.245-2.949,8.068-.813,14.336a2.09,2.09,0,0,1-1.122,2.567c-.044.026-.094.043-.139.067A62.965,62.965,0,0,1,27.441,42.2c0-.024-.006-.047-.011-.07a39.16,39.16,0,0,1-.591-8.192c1.4-2.387,5.515-2.483,5.557-2.484a1,1,0,0,0-.014-2H32.37a11.406,11.406,0,0,0-5.276,1.482,25.705,25.705,0,0,1,1.3-5.292,1,1,0,0,0,.145-.227.987.987,0,0,0,.087-.394,21.715,21.715,0,0,1,2.478-4.581,14.5,14.5,0,0,1,7.942.5.983.983,0,0,0,.4.084,1,1,0,0,0,.4-1.916,15.592,15.592,0,0,0-6.865-.949A15.909,15.909,0,0,1,36.879,15.1c1.453-.7,3.576.2,4.273.61a.989.989,0,0,0,.506.138,1,1,0,0,0,.508-1.861A8.514,8.514,0,0,0,37.5,12.879a5.613,5.613,0,0,1,.857-1.844,1,1,0,0,0-1.589-1.213A7.059,7.059,0,0,0,35.4,13.646a21.654,21.654,0,0,0-7.844,9.02c-.142.292-.279.606-.415.921a5.723,5.723,0,0,1-2.254-5.344,1,1,0,0,0-1.976-.312A7.608,7.608,0,0,0,26.4,25.5a29.541,29.541,0,0,0-1.482,7.883.992.992,0,0,0-.016.287,40.133,40.133,0,0,0,.344,7.183,5.012,5.012,0,0,1-1.885-1.788A1,1,0,0,0,21.6,40a7.122,7.122,0,0,0,4.017,3.169,64.312,64.312,0,0,0,3.693,12.391,3.432,3.432,0,0,1-1.787-.5v0c-.108-.069-.2-.136-.286-.2a2.711,2.711,0,0,1-.315-.283l-.016-.015-.42-.478c-6.262-7.207-9.4-12.479-9.147-21.3l.021-.729-.688-.242a4.18,4.18,0,0,1-1.261-7.175l.656-.538-.426-.735a6.055,6.055,0,0,1,5-9.089l1.215-.051-.284-1.182a5.112,5.112,0,0,1-.147-1.195,5.056,5.056,0,0,1,.087-.9c.013-.075.034-.147.05-.22a5.081,5.081,0,0,1,.2-.671c.022-.06.045-.119.07-.178a5.128,5.128,0,0,1,.381-.741c.006-.009.01-.019.016-.028a5.209,5.209,0,0,1,1.206-1.311c.065-.05.134-.094.2-.141a5.072,5.072,0,0,1,.5-.306c.108-.058.216-.114.329-.164a5.037,5.037,0,0,1,1.7-.446l.924-.07v-.93l0-.078a3.7,3.7,0,0,1,6.194-2.689l.7.633.672-.664a3.233,3.233,0,0,1,2.678-.913,3.277,3.277,0,0,1,2.71,2.331A3.088,3.088,0,0,1,40.137,5.6l-.1,1.115h1.125a5.608,5.608,0,0,1,5.577,5.209l.046.657.621.218a7.467,7.467,0,0,1,5.008,7.214,7.625,7.625,0,0,1-4.776,6.765A6.937,6.937,0,0,1,43.2,27.126Z" transform="translate(2356.849 1646)"/>
</svg>
