<svg xmlns="http://www.w3.org/2000/svg" viewBox="2359 1546 54.188 54.187">
  <defs>
    <style>
      .cls-1 {
        fill: #7d7d7d;
      }
    </style>
  </defs>
  <g id="Groupe_35" data-name="Groupe 35" transform="translate(1990)">
    <path id="Tracé_66" data-name="Tracé 66" class="cls-1" d="M138.747,70.025a1.058,1.058,0,0,0-1.12-.992,14.882,14.882,0,0,0-7.692,2.83,1.058,1.058,0,1,0,1.228,1.724,12.6,12.6,0,0,1,6.592-2.441A1.058,1.058,0,0,0,138.747,70.025Z" transform="translate(253.215 1484.276)"/>
    <path id="Tracé_67" data-name="Tracé 67" class="cls-1" d="M109.765,112.306a1.058,1.058,0,0,0-1.5-.015l-.034.034a1.058,1.058,0,1,0,1.489,1.5l.027-.026A1.059,1.059,0,0,0,109.765,112.306Z" transform="translate(272.501 1445.864)"/>
    <path id="Tracé_68" data-name="Tracé 68" class="cls-1" d="M54.017,22.457c-2.746-4.225-5.22-7.228-8.556-8.686q.394-.411.78-.811c1.254-1.3,2.551-2.648,3.92-4.269a1.058,1.058,0,0,0,.209-.974L49.046,3.085a1.058,1.058,0,0,0-1.788-.435,55.807,55.807,0,0,1-5.065,4.657c-.556.47-1.161.981-1.823,1.551C38.628,5.22,35.63,2.715,31.733.173A1.058,1.058,0,0,0,30.21.581a8.089,8.089,0,0,0-.7,3.248C22.174.949,13.974,2.906,7.727,9.153A26.381,26.381,0,1,0,45.035,46.461,22.861,22.861,0,0,0,51.5,35.008a17.983,17.983,0,0,0-.915-10.345,7.857,7.857,0,0,0,3.023-.685,1.058,1.058,0,0,0,.409-1.521ZM43.538,44.965A24.264,24.264,0,1,1,9.224,10.65C15.14,4.733,22.958,3.066,29.746,6.231A12.364,12.364,0,0,0,31.5,10.339c-.478.317-1.009.646-1.528.968-2.469,1.53-4.253,2.636-4.019,4.1.122.765.748,1.291,1.862,1.562a18.238,18.238,0,0,0,2.665.171,46.534,46.534,0,0,1,5.646.4,24.555,24.555,0,0,1,.418,3.693,31.194,31.194,0,0,0,.493,4.351c.17.805.567,2.691,2.067,2.691,1.244,0,2.093-1.382,3.378-3.474.416-.678.873-1.421,1.356-2.127a12.458,12.458,0,0,0,4.356,1.8C51.4,31.2,49.679,38.823,43.538,44.965Zm6.6-22.408a8.091,8.091,0,0,1-1.075-.073l-.051-.006a10.416,10.416,0,0,1-4.784-2.11,1.058,1.058,0,0,0-1.477.206c-.768,1.01-1.458,2.133-2.067,3.124-.437.712-.993,1.616-1.4,2.128-.052-.166-.111-.386-.172-.674a29.626,29.626,0,0,1-.452-4.054,20.5,20.5,0,0,0-.668-4.761,1.058,1.058,0,0,0-.7-.688,33.507,33.507,0,0,0-6.743-.622c-.858-.028-1.822-.059-2.157-.1a26.587,26.587,0,0,1,2.7-1.82c.891-.552,1.812-1.123,2.525-1.665a1.058,1.058,0,0,0,.206-1.477,10.6,10.6,0,0,1-2.074-4.535,1.07,1.07,0,0,0-.03-.179,7.568,7.568,0,0,1,.026-2.525c3.508,2.408,5.952,4.747,7.222,8.252a1.058,1.058,0,0,0,1.693.435c1.1-.964,2.056-1.774,2.9-2.488C45,7.7,46.214,6.68,47.51,5.414l.668,2.338c-1.194,1.384-2.345,2.579-3.462,3.739-.624.648-1.27,1.318-1.919,2.017a1.058,1.058,0,0,0,.5,1.743c2.9.776,5.114,2.7,8.165,7.188A7.384,7.384,0,0,1,50.135,22.557Z" transform="translate(369 1546)"/>
    <path id="Tracé_69" data-name="Tracé 69" class="cls-1" d="M350.569,401.352a1.058,1.058,0,0,0-1.5-.008l-.031.03a1.058,1.058,0,1,0,1.489,1.5l.031-.03A1.058,1.058,0,0,0,350.569,401.352Z" transform="translate(57.179 1187.406)"/>
    <path id="Tracé_70" data-name="Tracé 70" class="cls-1" d="M269.024,419.819a1.058,1.058,0,0,0-1.476-.248,12.6,12.6,0,0,1-6.592,2.441,1.058,1.058,0,0,0,.063,2.115l.065,0a14.881,14.881,0,0,0,7.692-2.83A1.058,1.058,0,0,0,269.024,419.819Z" transform="translate(136.552 1171.01)"/>
  </g>
</svg>
